<?xml version="1.0" encoding="UTF-8"?>
<svg version="1.1" xmlns="http://www.w3.org/2000/svg" width="2997" height="1173">
<path d="M0 0 C989.01 0 1978.02 0 2997 0 C2997 387.09 2997 774.18 2997 1173 C2007.99 1173 1018.98 1173 0 1173 C0 785.91 0 398.82 0 0 Z " fill="#FEFEFE" transform="translate(0,0)"/>
<path d="M0 0 C3.29125977 1.27832031 3.29125977 1.27832031 6.69140625 3.078125 C7.30951675 3.40049637 7.92762726 3.72286774 8.56446838 4.05500793 C10.57138357 5.10629849 12.56674171 6.17770336 14.5625 7.25 C15.96474254 7.98996908 17.36758125 8.72880945 18.77099609 9.46655273 C27.46564599 14.0514868 36.10464116 18.74115788 44.71118164 23.48925781 C52.23820032 27.62894409 59.86057343 31.57357557 67.5 35.5 C76.52666258 40.14243581 85.521213 44.83509891 94.4375 49.6875 C95.324375 50.16832031 96.21125 50.64914063 97.125 51.14453125 C109.82972453 58.10330056 109.82972453 58.10330056 112.8125 62.5625 C113.21082031 63.14128906 113.60914063 63.72007812 114.01953125 64.31640625 C116.37730058 68.36500618 116.1441206 72.34576282 116.13701439 76.87157631 C116.13966622 77.68613759 116.14231804 78.50069887 116.14505023 79.33994383 C116.15276205 82.09290247 116.15330312 84.84581666 116.15390015 87.5987854 C116.15791353 89.58311499 116.16235154 91.56744375 116.1671797 93.55177152 C116.1791649 99.02317593 116.18479816 104.49457152 116.18936086 109.96598649 C116.19530956 115.85982739 116.20692121 121.75365769 116.21765137 127.64749146 C116.24103164 141.2170167 116.25558487 154.78654614 116.26788078 168.35608515 C116.27213512 173.05066208 116.27670083 177.74523861 116.2814641 182.43981504 C116.30672405 207.39823082 116.32877338 232.35664726 116.34119225 257.31507301 C116.3441136 263.09823229 116.34708112 268.88139155 116.35009766 274.66455078 C116.35046857 275.38303947 116.35083947 276.10152816 116.35122162 276.84178923 C116.36337705 300.13674122 116.39432078 323.43161766 116.43601918 346.72653417 C116.47880507 370.67263683 116.50543303 394.61869958 116.51066696 418.5648415 C116.51140741 421.94695874 116.51231809 425.32907592 116.51332474 428.71119308 C116.51351535 429.37682531 116.51370597 430.04245753 116.51390236 430.72826043 C116.51719844 440.77744269 116.53448847 450.82653984 116.55921555 460.87569046 C116.58718345 472.30745318 116.59822965 483.73907228 116.58702008 495.17086656 C116.58182519 501.00488482 116.58477458 506.83860215 116.60948563 512.6725769 C116.63191933 518.01341846 116.63128369 523.35374189 116.61228175 528.69459216 C116.60947352 530.62668922 116.61512579 532.55882097 116.63009469 534.49086209 C116.76992675 553.7145016 116.76992675 553.7145016 111 560 C108.1592019 562.37877621 105.24305602 564.21062436 102 566 C100.52611816 566.82008545 100.52611816 566.82008545 99.02246094 567.65673828 C96.25080775 569.16705794 93.46748193 570.65143902 90.67266846 572.11837769 C87.55169481 573.7574902 84.43963578 575.41332346 81.328125 577.0703125 C80.70157013 577.40383224 80.07501526 577.73735199 79.42947388 578.08097839 C73.77195134 581.10244703 68.19122333 584.251169 62.625 587.4375 C53.19818657 592.82508491 43.6481299 597.95047508 34.05377197 603.03048706 C25.79951063 607.40380429 17.60928211 611.86116672 9.5 616.5 C0.12023743 621.86559884 -9.38290404 626.96720034 -18.93167114 632.02270508 C-28.45729158 637.06931929 -37.88291641 642.26395565 -47.24902344 647.60253906 C-73.05595785 662.30269158 -73.05595785 662.30269158 -85 661 C-88.87639606 659.710607 -92.27861075 657.8454818 -95.8125 655.8125 C-96.80113037 655.27077148 -97.78976074 654.72904297 -98.80834961 654.17089844 C-101.88811957 652.47403667 -104.94554305 650.7419487 -108 649 C-109.84866558 647.95651243 -111.69761603 646.91352935 -113.546875 645.87109375 C-116.32703226 644.30015171 -119.10498642 642.72573573 -121.87792969 641.14208984 C-129.86325114 636.59343801 -137.94568132 632.2451088 -146.0625 627.9375 C-146.70491638 627.59643219 -147.34733276 627.25536438 -148.00921631 626.90396118 C-149.29643161 626.2205749 -150.58365283 625.53719976 -151.87088013 624.85383606 C-152.49872406 624.52050766 -153.12656799 624.18717926 -153.7734375 623.84375 C-154.39556122 623.51352341 -155.01768494 623.18329681 -155.65866089 622.84306335 C-170.43909244 614.99084445 -185.06496491 606.85976428 -199.68334961 598.71118164 C-207.50210613 594.36225138 -215.36226286 590.0973287 -223.25 585.875 C-231.7585693 581.31633118 -240.21949691 576.68376937 -248.625 571.9375 C-249.55473633 571.41333496 -250.48447266 570.88916992 -251.44238281 570.34912109 C-269.94399361 559.84811504 -269.94399361 559.84811504 -273 552 C-273.19601825 549.2798149 -273.28274191 546.66206668 -273.27415466 543.94207764 C-273.27939134 543.12351044 -273.28462802 542.30494324 -273.29002339 541.46157098 C-273.30504159 538.7148913 -273.30572894 535.96839763 -273.30639648 533.22167969 C-273.31401682 531.25379623 -273.3224441 529.28591576 -273.33161926 527.31803894 C-273.35358531 521.96872997 -273.36236616 516.61947818 -273.36744571 511.2701292 C-273.3710872 507.9278845 -273.37732623 504.58565482 -273.3844471 501.24341583 C-273.40895022 489.58268068 -273.42199508 477.92199005 -273.42553711 466.26123047 C-273.42917164 455.3934949 -273.45905906 444.52604188 -273.50094169 433.65839267 C-273.53564068 424.3274688 -273.5510855 414.99663856 -273.55178314 405.66565061 C-273.55257618 400.09296893 -273.5613269 394.5205749 -273.58978081 388.9479599 C-273.61595406 383.70460237 -273.61817056 378.4617711 -273.60212517 373.21837807 C-273.60031002 371.29632991 -273.60700729 369.37425155 -273.62294388 367.4522686 C-273.64341309 364.82284399 -273.63284848 362.19525913 -273.61473083 359.56585693 C-273.6279308 358.80980754 -273.64113077 358.05375814 -273.65473074 357.27479815 C-273.54768595 350.44736065 -270.6249093 345.58279845 -265.80859375 340.84375 C-261.69184946 338.14124193 -257.40468075 335.81838254 -253.0625 333.5 C-251.06766064 332.42326544 -249.07287028 331.34644009 -247.078125 330.26953125 C-246.06298828 329.72377441 -245.04785156 329.17801758 -244.00195312 328.61572266 C-239.43033067 326.15516659 -234.87060851 323.67297894 -230.3125 321.1875 C-229.41635986 320.69942871 -228.52021973 320.21135742 -227.59692383 319.70849609 C-220.29122209 315.72240156 -213.01922324 311.67714117 -205.75 307.625 C-195.85136708 302.10915536 -185.90329072 296.69501621 -175.91552734 291.3425293 C-167.08183 286.60121545 -158.29985513 281.77075479 -149.52856445 276.91540527 C-140.28886797 271.80125228 -131.01528066 266.7536267 -121.71704102 261.74658203 C-113.54176255 257.32859707 -105.45204332 252.76590954 -97.39501953 248.13598633 C-96.4976709 247.62318115 -95.60032227 247.11037598 -94.67578125 246.58203125 C-93.4988269 245.90491089 -93.4988269 245.90491089 -92.2980957 245.21411133 C-85.79699171 241.77950066 -80.29948384 240.85093063 -73 242 C-68.3162496 243.76117739 -64.04487645 246.08226979 -59.68115234 248.51757812 C-56.44914537 250.30457014 -53.18894187 252.03648885 -49.92578125 253.765625 C-44.96115925 256.40111411 -40.00034933 259.04335887 -35.05078125 261.70703125 C-34.00575439 262.2688208 -32.96072754 262.83061035 -31.8840332 263.40942383 C-29 265 -29 265 -26.35229492 266.7175293 C-22.95887108 268.56762327 -20.66665413 267.89936799 -17 267 C-14.83458676 265.24143196 -14.83458676 265.24143196 -14.75324565 263.09779143 C-14.75476184 262.31502279 -14.75627802 261.53225414 -14.75784016 260.72576523 C-14.75469156 259.82328387 -14.75154296 258.92080251 -14.74829894 257.99097323 C-14.7583633 256.49421742 -14.7583633 256.49421742 -14.76863098 254.96722412 C-14.76777754 253.9121086 -14.7669241 252.85699309 -14.7660448 251.76990438 C-14.76542758 248.21078901 -14.77898097 244.65186219 -14.79223633 241.09277344 C-14.79439617 238.55052248 -14.79558398 236.00827054 -14.79586792 233.46601868 C-14.79792796 227.97938718 -14.80557692 222.49280577 -14.8173008 217.00618744 C-14.83515374 208.33428381 -14.83128133 199.66245295 -14.82365417 190.99053955 C-14.82129882 188.024746 -14.81905909 185.05895237 -14.81683636 182.09315872 C-14.81627182 181.35192036 -14.81570729 180.610682 -14.81512565 179.84698187 C-14.80892948 171.40531255 -14.806584 162.96364413 -14.80639648 154.52197266 C-14.80637305 153.7501083 -14.80634961 152.97824394 -14.80632546 152.18298975 C-14.80657583 139.67763819 -14.82568361 127.17236973 -14.84999315 114.66704509 C-14.87430836 101.83220941 -14.87189097 88.99755896 -14.84631175 76.16272569 C-14.83150691 68.24394711 -14.83856028 60.3257902 -14.87361284 52.40707263 C-14.89840091 46.33785588 -14.88677867 40.26927143 -14.86156845 34.20003319 C-14.85706133 31.70953008 -14.86457574 29.21897233 -14.88489723 26.72854805 C-14.91087888 23.33163506 -14.89398217 19.93754783 -14.86628723 16.54071045 C-14.893082 15.05733897 -14.893082 15.05733897 -14.92041808 13.54400039 C-14.80542342 7.05868122 -14.80542342 7.05868122 -12.50755918 4.03827524 C-8.42169854 0.35204648 -5.6576492 -0.92224007 0 0 Z " fill="#404137" transform="translate(1581,170)"/>
<path d="M0 0 C4.82635613 1.99843791 9.31036015 4.62571609 13.81976318 7.24475098 C15.23871435 8.03769909 16.65930799 8.82771481 18.08148193 9.61486816 C21.48943423 11.50894129 24.87793054 13.43475874 28.26074219 15.37329102 C31.30297282 17.10900506 34.37349028 18.79280771 37.44232178 20.48083496 C39.50753681 21.61990189 41.56447306 22.77286861 43.62054443 23.92834473 C48.94508875 26.9081583 54.32310986 29.78854299 59.69476318 32.68225098 C67.7508444 37.02481727 75.74436128 41.4617749 83.69476318 45.99475098 C91.7405203 50.5797472 99.86721896 54.95577249 108.09393311 59.20617676 C114.65230984 62.61310972 121.08981055 66.20509448 127.50726318 69.86975098 C134.91508531 74.09993998 142.37129717 78.19351406 149.94476318 82.11975098 C156.34284089 85.43929336 162.71216825 88.79555174 169.00726318 92.30725098 C169.64784668 92.66077637 170.28843018 93.01430176 170.94842529 93.37854004 C177.05336641 96.81622587 182.2243017 100.15950739 184.57618999 107.03229237 C185.20391012 110.43605265 185.15528341 113.82033707 185.1544342 117.26908875 C185.15811089 118.07061617 185.16178758 118.87214359 185.16557568 119.69795972 C185.17659925 122.38698452 185.18045411 125.07597065 185.18426514 127.76501465 C185.19053079 129.69186526 185.19717768 131.61871466 185.20417786 133.54556274 C185.22520847 139.87627319 185.23557927 146.20698386 185.24554443 152.53771973 C185.24959235 154.71803614 185.25370929 156.89835244 185.25789452 159.07866859 C185.27694394 169.3222328 185.29117553 179.5657898 185.29950649 189.80936831 C185.30927854 201.62937868 185.33559837 213.44920177 185.37600738 225.26914614 C185.40617766 234.40814694 185.42097623 243.54709407 185.4242875 252.6861437 C185.42663692 258.14312857 185.43558357 263.59991331 185.46074867 269.05684471 C185.48405025 274.19261762 185.48825413 279.32805891 185.47798729 284.463871 C185.47749233 286.34518475 185.48380096 288.22651493 185.49754333 290.10777855 C185.63490466 310.03226224 185.63490466 310.03226224 179.5600481 317.03895855 C174.63318981 321.96813904 167.82126875 324.9136996 161.68847656 328.08786011 C158.97470383 329.49243377 156.27136698 330.91657521 153.56726074 332.33964539 C152.22326632 333.04671609 150.87874711 333.75279022 149.53369141 334.45783997 C144.52517655 337.08517977 139.56246391 339.78547067 134.63226318 342.55725098 C128.01921018 346.26508505 121.36670261 349.89394423 114.69476318 353.49475098 C104.98237703 358.73875145 95.31055956 364.05267596 85.65255737 369.39584351 C77.33689894 373.99549646 68.99850852 378.55007633 60.63226318 383.05725098 C52.80515408 387.2743958 45.04403459 391.59221541 37.31976318 395.99475098 C28.94367384 400.76856129 20.48532724 405.34596194 11.91864014 409.76867676 C11.11257324 410.18488281 10.30650635 410.60108887 9.47601318 411.02990723 C8.71119629 411.42339355 7.94637939 411.81687988 7.15838623 412.22229004 C5.16153545 413.28745842 3.23985144 414.43041839 1.30804443 415.60803223 C-4.70693271 418.81839281 -10.42677054 419.12154297 -16.99273682 417.36975098 C-24.83852383 414.15160622 -32.11720482 409.71224028 -39.42340088 405.44006348 C-44.78046354 402.31569198 -50.22725462 399.35372156 -55.66522217 396.37332153 C-57.49884344 395.36639755 -59.32972046 394.3546599 -61.159729 393.34118652 C-69.19568674 388.89163753 -77.26934536 384.51742911 -85.36773682 380.18225098 C-93.34617251 375.91027133 -101.2602998 371.54771157 -109.11773682 367.05725098 C-118.31271728 361.80517535 -127.62817355 356.80997176 -136.99273682 351.86975098 C-147.41769925 346.3695157 -157.7723591 340.77961191 -167.99835205 334.91418457 C-172.50986349 332.32741566 -177.0369205 329.79574962 -181.63726807 327.36975098 C-182.54895752 326.88490234 -183.46064697 326.40005371 -184.39996338 325.9005127 C-186.10246806 324.99916827 -187.81101733 324.10909688 -189.5269165 323.23352051 C-195.613796 319.99480729 -200.4064362 316.29048787 -203.05062294 309.75505543 C-204.13235669 305.86805391 -204.27691902 302.26609904 -204.26016235 298.26786804 C-204.26469347 297.46871532 -204.26922458 296.6695626 -204.273893 295.84619313 C-204.28651999 293.17714722 -204.28491773 290.50830581 -204.28326416 287.8392334 C-204.28925048 285.92193846 -204.29605626 284.00464593 -204.30361938 282.08735657 C-204.32127618 276.88478124 -204.32597464 271.68227172 -204.32725096 266.47966933 C-204.32867331 263.22752624 -204.3329445 259.97539983 -204.33824539 256.72326088 C-204.35674469 245.37258468 -204.36491614 234.02195543 -204.36334229 222.67126465 C-204.36214095 212.09892429 -204.38324201 201.52678812 -204.41482961 190.95449942 C-204.44100074 181.87065141 -204.45170923 172.78687005 -204.45043147 163.70298463 C-204.44992208 158.28069365 -204.45559271 152.85858415 -204.47678757 147.4363308 C-204.4961839 142.33498756 -204.49628475 137.23399865 -204.4817543 132.13264275 C-204.47966684 130.26423372 -204.48436334 128.39580243 -204.49647522 126.52743149 C-204.61432777 107.08256829 -204.61432777 107.08256829 -198.19049072 99.14196777 C-193.22297158 95.07769365 -188.11544098 92.02149803 -182.36773682 89.18225098 C-180.495733 88.22961014 -178.62466791 87.27512279 -176.75445557 86.31896973 C-175.79974365 85.83347656 -174.84503174 85.3479834 -173.86138916 84.84777832 C-169.25765721 82.4757789 -164.71905918 79.98813204 -160.18023682 77.49475098 C-158.33921649 76.48540745 -156.49806912 75.47629559 -154.65679932 74.46740723 C-153.73028564 73.95967773 -152.80377197 73.45194824 -151.84918213 72.92883301 C-148.93069331 71.33588689 -146.00590128 69.75517118 -143.07867432 68.17834473 C-133.32487307 62.92330674 -123.61406875 57.61400653 -113.99273682 52.11975098 C-104.73018227 46.83774481 -95.35509319 41.79129183 -85.93023682 36.80725098 C-85.23989349 36.44217438 -84.54955017 36.07709778 -83.83828735 35.70095825 C-83.15086456 35.33747284 -82.46344177 34.97398743 -81.75518799 34.5994873 C-80.38903933 33.87711131 -79.02290955 33.15469964 -77.65679932 32.43225098 C-76.9916481 32.08051315 -76.32649689 31.72877533 -75.64118958 31.36637878 C-59.76865141 22.96412636 -44.07586206 14.22469198 -28.35919189 5.53552246 C-27.75148453 5.19969147 -27.14377716 4.86386047 -26.51765442 4.51785278 C-24.85585486 3.59941439 -23.19430748 2.68051974 -21.53277588 1.76159668 C-15.06981441 -1.7798627 -7.09099205 -2.24268994 0 0 Z " fill="#83CD29" transform="translate(991.9927368164063,409.6302490234375)"/>
<path d="M0 0 C3.47071331 1.61191735 6.81437545 3.43369276 10.16015625 5.28857422 C12.98580513 6.84628971 15.83268 8.36012737 18.68359375 9.87109375 C30.38752312 16.09327936 41.97504272 22.5015929 53.49047852 29.06518555 C60.07893652 32.80838078 66.74003451 36.37618288 73.46679688 39.86328125 C79.93717368 43.23770561 86.28201996 46.81559417 92.62109375 50.4296875 C99.23913544 54.20210605 105.85428972 57.8588595 112.7109375 61.18359375 C117.33868829 63.51267201 121.84013122 66.06248028 126.35986328 68.59326172 C131.43049428 71.43143418 136.51935747 74.23222083 141.62744141 77.00244141 C145.34108204 79.01887095 149.04581243 81.05145725 152.75146484 83.08251953 C155.8207948 84.75442266 158.90251719 86.40210336 161.984375 88.05078125 C164.05124933 89.17622413 166.11766806 90.3025042 168.18359375 91.4296875 C169.14483154 91.93604736 170.10606934 92.44240723 171.09643555 92.96411133 C177.97919648 96.75860309 183.13657975 101.03864551 185.68359375 108.6796875 C185.77582213 110.14841351 185.81268601 111.62097043 185.81502151 113.09258747 C185.81886266 114.00054327 185.8227038 114.90849908 185.82666135 115.84396869 C185.82579487 116.842784 185.82492838 117.84159932 185.82403564 118.87068176 C185.82849233 120.460762 185.82849233 120.460762 185.83303905 122.08296508 C185.84174516 125.65273005 185.84323591 129.22246156 185.84472656 132.79223633 C185.84935336 135.34448824 185.85437783 137.89673946 185.85977173 140.44898987 C185.87291051 147.39527481 185.87938003 154.34154869 185.88378239 161.28784394 C185.88654444 165.62456717 185.89078173 169.96128816 185.89528656 174.29800987 C185.90747937 186.30353181 185.91777873 198.30905197 185.92116165 210.31457996 C185.92138122 211.08304415 185.92160078 211.85150834 185.921827 212.64325933 C185.92204528 213.41356875 185.92226356 214.18387817 185.92248845 214.9775303 C185.92293192 216.538487 185.92337848 218.09944369 185.92382812 219.66040039 C185.92404955 220.43468986 185.92427098 221.20897934 185.92449912 222.00673213 C185.92844745 234.5540427 185.94590247 247.1012952 185.96918765 259.64858333 C185.99289749 272.52859094 186.00536333 285.40856941 186.00652957 298.28859919 C186.00744653 305.52111929 186.01320405 312.75356374 186.03134918 319.986063 C186.04835374 326.78793899 186.05000555 333.58964678 186.04121017 340.39154625 C186.04043759 342.89010884 186.0448115 345.38867903 186.05466843 347.88722229 C186.06732263 351.29423508 186.06154629 354.70073352 186.05108643 358.10774231 C186.06317103 359.59592703 186.06317103 359.59592703 186.07549977 361.11417609 C186.03095093 367.305051 185.29416597 371.7790517 180.99609375 376.5546875 C177.4971746 378.25686438 174.44600448 378.32546601 170.68359375 377.6796875 C166.46759262 375.96193118 162.57293003 373.74290998 158.62109375 371.4921875 C157.47858154 370.85941895 156.33606934 370.22665039 155.15893555 369.57470703 C151.65419157 367.63219364 148.16806578 365.65834489 144.68359375 363.6796875 C143.15750488 362.81561279 143.15750488 362.81561279 141.60058594 361.93408203 C137.78547727 359.77303634 133.97119337 357.61061524 130.16210938 355.43896484 C122.62001784 351.15652467 114.96590075 347.12108237 107.26171875 343.1394043 C96.97757379 337.81859197 86.81118286 332.29200685 76.68359375 326.6796875 C76.01102539 326.3094043 75.33845703 325.93912109 74.64550781 325.55761719 C66.56868922 321.09445262 59.12441592 316.7324056 55.68359375 307.6796875 C55.12185951 303.51170172 55.18087867 299.38601439 55.23291016 295.18603516 C55.23221024 293.941259 55.23151031 292.69648285 55.23078918 291.41398621 C55.2315054 288.71702813 55.23929532 286.02117221 55.25886917 283.32439041 C55.28888884 279.05342293 55.28616073 274.78285315 55.27816772 270.5118103 C55.26310401 259.90419359 55.28476234 249.29669114 55.32598877 238.68914795 C55.35798836 230.44164331 55.37713409 222.19460291 55.35447633 213.94704282 C55.34426328 209.70823036 55.36141152 205.47071413 55.39961648 201.23207498 C55.42138513 197.96538539 55.40406963 194.69884737 55.39306641 191.43212891 C55.42082405 189.6877932 55.42082405 189.6877932 55.44914246 187.90821838 C55.3739167 180.38888049 53.95190897 175.22043649 48.68359375 169.6796875 C45.59945002 167.43804097 42.4159551 165.73222144 38.99609375 164.0546875 C37.04844224 163.0475757 35.10188016 162.03835506 33.15625 161.02734375 C32.12000488 160.49641113 31.08375977 159.96547852 30.01611328 159.41845703 C24.53498511 156.55863324 19.14810726 153.53159792 13.75424194 150.5112915 C10.84275621 148.88159348 7.92722201 147.25921885 5.01171875 145.63671875 C4.03106445 145.08991455 3.05041016 144.54311035 2.04003906 143.97973633 C-3.67267643 140.82803616 -8.85315652 140.84298798 -15.31640625 141.6796875 C-20.45471919 143.58245129 -25.09175376 146.19488712 -29.81640625 148.9296875 C-31.12750195 149.66343704 -32.43985689 150.39494076 -33.75341797 151.12426758 C-36.37949851 152.58844656 -38.99570219 154.06822759 -41.60449219 155.56298828 C-44.97914424 157.49477214 -48.38103088 159.37299588 -51.79296875 161.23828125 C-53.67665816 162.27966539 -55.55953274 163.32252544 -57.44140625 164.3671875 C-58.29283203 164.83479492 -59.14425781 165.30240234 -60.02148438 165.78417969 C-65.75956888 169.04650106 -69.70351387 172.46389534 -72.31640625 178.6796875 C-72.6087819 181.21316704 -72.6087819 181.21316704 -72.55450439 183.99075317 C-72.55699692 185.0672261 -72.55948944 186.14369904 -72.5620575 187.25279236 C-72.55479141 188.42894608 -72.54752533 189.60509979 -72.54003906 190.81689453 C-72.54065086 192.6809922 -72.54065086 192.6809922 -72.54127502 194.58274841 C-72.54147273 197.28433401 -72.53820294 199.98567991 -72.52967072 202.68722916 C-72.5172688 206.96658203 -72.52424954 211.24576673 -72.53509521 215.52511597 C-72.56353167 227.69354718 -72.57606152 239.86183497 -72.54638672 252.03027344 C-72.53015641 258.75239494 -72.53541845 265.47414919 -72.564183 272.19623268 C-72.57842619 275.74921246 -72.58160936 279.30142795 -72.55796051 282.85437393 C-72.53153483 286.82525876 -72.55169404 290.79519532 -72.57519531 294.76611328 C-72.55983231 295.93012161 -72.5444693 297.09412994 -72.52864075 298.29341125 C-72.62657421 306.0686836 -74.2772671 311.63760629 -79.31640625 317.6796875 C-82.19352224 319.99368599 -85.15727038 321.69013522 -88.44140625 323.3671875 C-89.34592529 323.85646729 -90.25044434 324.34574707 -91.18237305 324.84985352 C-93.15914652 325.91478143 -95.14245556 326.96764612 -97.13134766 328.00976562 C-100.46065465 329.75531674 -103.77050326 331.53403677 -107.078125 333.3203125 C-111.81765968 335.87577859 -116.56329546 338.41910555 -121.31640625 340.94921875 C-135.80068414 348.66142401 -150.22940296 356.45990022 -164.50390625 364.5546875 C-165.46409668 365.09714111 -166.42428711 365.63959473 -167.41357422 366.19848633 C-171.41169709 368.45821895 -175.40336163 370.72468167 -179.36328125 373.05078125 C-189.71294183 378.97679658 -189.71294183 378.97679658 -196.31640625 377.6796875 C-199.59622376 375.61197646 -201.16386632 373.90849739 -203.31640625 370.6796875 C-203.57055658 368.62993366 -203.57055658 368.62993366 -203.57646847 366.22552204 C-203.58353406 365.30834945 -203.59059965 364.39117686 -203.59787935 363.44621116 C-203.59546427 362.43708724 -203.59304918 361.42796332 -203.59056091 360.38825989 C-203.59579759 359.31736687 -203.60103427 358.24647385 -203.60642964 357.14312953 C-203.62149198 353.53654455 -203.62213616 349.93010066 -203.62280273 346.32348633 C-203.63042012 343.74492145 -203.63884689 341.16635886 -203.64802551 338.58779907 C-203.67089034 331.56906901 -203.67879801 324.55036916 -203.68385196 317.53160691 C-203.68710788 313.14863207 -203.69362981 308.76566602 -203.70085335 304.38269615 C-203.72042281 292.24678867 -203.73682446 280.11088937 -203.73972988 267.9749651 C-203.73991745 267.1981012 -203.74010502 266.4212373 -203.74029827 265.62083207 C-203.74066453 264.04593321 -203.74102822 262.47103435 -203.74138939 260.89613549 C-203.7415722 260.11435365 -203.74175501 259.33257181 -203.74194336 258.52709961 C-203.74212391 257.74436291 -203.74230446 256.96162622 -203.74249048 256.15517022 C-203.74603088 243.47659752 -203.77304326 230.7981948 -203.81044125 218.11968104 C-203.84853277 205.10179547 -203.86788743 192.0839942 -203.86818939 179.06605166 C-203.86877385 171.75740279 -203.87725773 164.44895657 -203.90618706 157.14035988 C-203.93327805 150.26453126 -203.93459849 143.38911005 -203.91853142 136.51324844 C-203.91671312 133.98972004 -203.92344171 131.46616881 -203.93935013 128.9426899 C-203.95974942 125.4966607 -203.94929291 122.05204416 -203.93113708 118.60603333 C-203.94433705 117.60806301 -203.95753702 116.6100927 -203.97113699 115.58188087 C-203.89247569 109.04206663 -202.50611631 104.75478059 -198.31640625 99.6796875 C-195.14487732 96.71853103 -191.77707083 94.69979321 -187.94921875 92.68359375 C-186.91031494 92.13155273 -185.87141113 91.57951172 -184.80102539 91.01074219 C-183.69235107 90.42711914 -182.58367676 89.84349609 -181.44140625 89.2421875 C-179.08743758 87.99028996 -176.73428785 86.73702642 -174.3828125 85.48046875 C-173.78877121 85.16330902 -173.19472992 84.84614929 -172.58268738 84.51937866 C-166.79310256 81.41837435 -161.08191692 78.18632341 -155.37890625 74.9296875 C-147.71121989 70.55864085 -139.98408327 66.34450001 -132.15527344 62.26977539 C-126.18704807 59.157916 -120.29782658 55.92155526 -114.42529297 52.63330078 C-108.19265561 49.14952655 -101.91490758 45.75354485 -95.62890625 42.3671875 C-87.76186347 38.12568478 -79.95400307 33.79670735 -72.19140625 29.3671875 C-60.04775873 22.45223187 -47.74186899 15.85307397 -35.37266541 9.3523407 C-31.97489971 7.56458008 -28.59860301 5.74377518 -25.23828125 3.88671875 C-16.53759961 -0.85433566 -9.70882964 -3.86523489 0 0 Z " fill="#404137" transform="translate(471.31640625,408.3203125)"/>
<path d="M0 0 C4.84257284 2.4864413 9.64290419 5.04755274 14.4375 7.625 C15.79414282 8.35164957 17.1508327 9.07821128 18.50756836 9.8046875 C26.78918382 14.24526998 35.0362954 18.74275398 43.234375 23.3359375 C49.41023466 26.79603704 55.61289236 30.20771218 61.8125 33.625 C64.32295299 35.0090487 66.83335479 36.39319025 69.34375 37.77734375 C69.97528992 38.12551651 70.60682983 38.47368927 71.25750732 38.83241272 C75.6629377 41.26153891 80.06628159 43.6944168 84.46875 46.12890625 C95.66380887 52.31782404 106.86750394 58.48751648 118.125 64.5625 C129.06490976 70.46738188 139.94230666 76.47998301 150.79296875 82.546875 C154.52803278 84.6338328 158.27382103 86.69304257 162.05078125 88.703125 C177.04608339 96.73431678 177.04608339 96.73431678 180.11401367 105.00219727 C181.45869099 110.0447165 181.3053583 115.15485389 181.30078125 120.33984375 C181.30506638 121.42076797 181.3093515 122.5016922 181.31376648 123.6153717 C181.31949136 125.89388328 181.32002368 128.17241312 181.31567383 130.45092773 C181.31251349 133.92268249 181.33599839 137.39358476 181.36132812 140.86523438 C181.36360137 143.08593643 181.3643045 145.30664077 181.36328125 147.52734375 C181.372491 148.55778305 181.38170074 149.58822235 181.39118958 150.64988708 C181.34104272 158.52229458 180.19838753 165.48176457 174.67871094 171.56982422 C170.93695592 174.75760795 166.47623344 176.83295094 162.125 179.0625 C159.94686745 180.2089463 157.76980906 181.35743539 155.59375 182.5078125 C153.93859375 183.37841309 153.93859375 183.37841309 152.25 184.26660156 C147.32059496 186.89571633 142.47364138 189.66309154 137.625 192.4375 C128.27900708 197.76121798 118.83848677 202.89190971 109.35791016 207.97143555 C103.04710372 211.35422107 96.75540679 214.76580867 90.5 218.25 C89.79673584 218.64002197 89.09347168 219.03004395 88.36889648 219.43188477 C84.59430516 221.53102197 80.84380124 223.66609188 77.109375 225.8359375 C76.29662109 226.30225586 75.48386719 226.76857422 74.64648438 227.24902344 C73.09470829 228.13999838 71.54867681 229.04108582 70.00976562 229.95410156 C65.83891544 232.33552247 62.9426323 233.60401766 58 233 C54.52037598 231.80698605 52.93262741 230.09365658 51 227 C50.63491821 224.50257874 50.63491821 224.50257874 50.64697266 221.66821289 C50.64331696 220.60353287 50.63966125 219.53885284 50.63589478 218.44190979 C50.64519012 217.29705612 50.65448547 216.15220245 50.6640625 214.97265625 C50.65155185 212.54752336 50.63851481 210.12239313 50.625 207.69726562 C50.62106568 203.87433487 50.6250414 200.05166571 50.63964844 196.22875977 C50.64820701 192.5388263 50.62655511 188.84999291 50.6015625 185.16015625 C50.61490631 184.01732681 50.62825012 182.87449738 50.64199829 181.69703674 C50.64294392 175.41494222 50.64294392 175.41494222 47.83666992 169.96069336 C44.94862117 167.96448719 42.09959649 166.1420008 39.01171875 164.46875 C38.43959656 164.15559845 37.86747437 163.8424469 37.27801514 163.51980591 C35.41891872 162.50484601 33.55342342 161.50234446 31.6875 160.5 C30.39354875 159.79682034 29.10001467 159.09287254 27.80688477 158.38818359 C24.51583944 156.59724372 21.21941601 154.81645477 17.92163086 153.03796387 C14.90748977 151.40988346 11.89926464 149.77103797 8.890625 148.1328125 C4.80313525 145.90969118 0.71452599 143.68872583 -3.37890625 141.4765625 C-4.1788501 141.04424316 -4.97879395 140.61192383 -5.80297852 140.16650391 C-6.52799561 139.78155762 -7.2530127 139.39661133 -8 139 C-8.69254883 138.61884033 -9.38509766 138.23768066 -10.09863281 137.8449707 C-13.22630784 136.45502678 -15.85046315 137.01980551 -19 138 C-22.8898714 139.77058812 -26.59115581 141.83948372 -30.3125 143.9375 C-31.37194824 144.52362061 -32.43139648 145.10974121 -33.52294922 145.71362305 C-35.67338185 146.90490372 -37.82120059 148.1009157 -39.96630859 149.30175781 C-42.6660327 150.81304712 -45.37180159 152.31234929 -48.08203125 153.8046875 C-51.72026499 155.80981127 -55.34762836 157.83346545 -58.97021484 159.86669922 C-61.01204537 161.00672536 -63.06186077 162.13124565 -65.11328125 163.25390625 C-66.38821071 163.96059505 -67.66296018 164.6676087 -68.9375 165.375 C-70.59072266 166.28378906 -70.59072266 166.28378906 -72.27734375 167.2109375 C-75.05351171 169.03516265 -76.32448622 170.16989573 -78 173 C-78.44724089 175.99878799 -78.44724089 175.99878799 -78.37231445 179.35742188 C-78.37854324 180.64555786 -78.38477203 181.93369385 -78.39118958 183.26086426 C-78.38250122 184.66349678 -78.37318321 186.06612552 -78.36328125 187.46875 C-78.36276238 188.9107666 -78.36328111 190.35278391 -78.36479187 191.7947998 C-78.36470224 194.81431666 -78.35429241 197.833566 -78.33618164 200.85302734 C-78.31349464 204.72009249 -78.31295133 208.58676692 -78.31969929 212.45388031 C-78.32304357 215.43076031 -78.31640056 218.40755152 -78.30657005 221.38441467 C-78.30272568 222.81014033 -78.30156668 224.23587588 -78.3031559 225.66160583 C-78.30352746 227.65528586 -78.28941073 229.64895265 -78.2746582 231.64257812 C-78.27005081 232.77634888 -78.26544342 233.91011963 -78.26069641 235.07824707 C-78.00310763 237.96517126 -77.58451203 239.60070299 -76 242 C-73.70101721 243.68492842 -73.70101721 243.68492842 -70.8828125 245.14453125 C-69.81562988 245.73097412 -68.74844727 246.31741699 -67.64892578 246.92163086 C-66.48603027 247.54561768 -65.32313477 248.16960449 -64.125 248.8125 C-62.90429996 249.47770741 -61.68409317 250.14382068 -60.46435547 250.81079102 C-56.65166006 252.89024845 -52.82707876 254.94716366 -49 257 C-48.10982178 257.47814148 -48.10982178 257.47814148 -47.20166016 257.96594238 C-42.01430043 260.75221508 -36.82352806 263.53203729 -31.62744141 266.30200195 C-23.20985919 270.79406027 -14.84490603 275.3745202 -6.5 280 C4.27282738 285.97025352 15.09842245 291.83250568 25.96386719 297.63232422 C33.97044074 301.90725047 41.95198477 306.22493154 49.91357422 310.58300781 C54.58686376 313.14049532 59.26600211 315.68610688 63.95703125 318.2109375 C73.94864623 323.58931583 83.9195923 329.00424225 93.8125 334.5625 C94.69623291 335.05105469 95.57996582 335.53960938 96.49047852 336.04296875 C97.30444092 336.50445313 98.11840332 336.9659375 98.95703125 337.44140625 C99.66835205 337.84045166 100.37967285 338.23949707 101.11254883 338.65063477 C103.2989011 340.21368858 104.58503021 341.71886598 106 344 C106.51185711 348.02173445 106.57876872 350.13978205 104.29052734 353.54077148 C101.92604807 356.07939861 100.00144432 357.37039402 96.9140625 358.91015625 C95.91310547 359.41836914 94.91214844 359.92658203 93.88085938 360.45019531 C92.80642578 360.98225586 91.73199219 361.51431641 90.625 362.0625 C88.3349407 363.22329598 86.04589427 364.38609214 83.7578125 365.55078125 C82.03933105 366.42210693 82.03933105 366.42210693 80.28613281 367.31103516 C75.63920133 369.69940603 71.0691201 372.21688121 66.5 374.75 C56.55290911 380.23616762 46.46259752 385.42563691 36.35107422 390.59957886 C26.45957446 395.66303758 16.63648451 400.82302579 6.93554688 406.24609375 C-10.28248279 415.8132199 -10.28248279 415.8132199 -18 414 C-22.69169209 412.05479904 -27.11999441 409.71995785 -31.58203125 407.30078125 C-34.16536993 405.91103686 -36.76699009 404.56159765 -39.375 403.21875 C-55.25374962 395.03312428 -71.04133493 386.64516732 -86.5 377.6875 C-92.09890319 374.45376594 -97.82294662 371.56797264 -103.625 368.71875 C-107.89758679 366.54289562 -111.98909358 364.11250198 -116.109375 361.6640625 C-118.82426489 360.10116643 -121.56108055 358.68730065 -124.375 357.3125 C-130.96212783 354.07850959 -137.37642611 350.55064723 -143.80908203 347.02124023 C-150.99506724 343.08280217 -158.21014951 339.20138118 -165.43914795 335.34274292 C-169.55643842 333.14240927 -173.66750693 330.930453 -177.78027344 328.72167969 C-180.70375241 327.15841204 -183.63555811 325.61226572 -186.5703125 324.0703125 C-188.17221939 323.21418575 -189.77380968 322.35746619 -191.375 321.5 C-192.0752832 321.1395459 -192.77556641 320.7790918 -193.49707031 320.40771484 C-199.49037901 317.16071841 -204.46973775 312.44247602 -207 306 C-207.19388359 303.28988951 -207.2784428 300.68303022 -207.26742554 297.97331238 C-207.27422221 296.75052856 -207.27422221 296.75052856 -207.28115618 295.50304204 C-207.29382985 292.76783976 -207.2921779 290.03283584 -207.29052734 287.29760742 C-207.29651077 285.33795413 -207.30331589 283.37830321 -207.31088257 281.4186554 C-207.32856943 276.09213327 -207.3332391 270.76567538 -207.33451414 265.43912673 C-207.33641235 260.99332668 -207.34376905 256.54754162 -207.35085833 252.10174733 C-207.36715038 241.61233882 -207.37202657 231.12296464 -207.37060547 220.63354492 C-207.36940406 209.81240816 -207.3905039 198.99147087 -207.4220928 188.17038459 C-207.448244 178.88108989 -207.45897324 169.59186038 -207.45769465 160.30252916 C-207.45718464 154.75395947 -207.4628892 149.20556696 -207.48405075 143.65703392 C-207.50341336 138.43753415 -207.50357101 133.21838093 -207.48901749 127.99886894 C-207.48692579 126.08447005 -207.49165175 124.17004959 -207.5037384 122.25568771 C-207.51918604 119.63926427 -207.50988627 117.02403644 -207.49447632 114.40763855 C-207.50476344 113.65256726 -207.51505057 112.89749597 -207.52564943 112.11954373 C-207.44596479 105.98438845 -205.51356312 101.9192989 -201.46484375 97.21704102 C-196.39718699 92.98454317 -190.84018928 89.98008143 -185 86.9375 C-182.84662659 85.79490717 -180.6943084 84.65032375 -178.54296875 83.50390625 C-177.45290527 82.92398926 -176.3628418 82.34407227 -175.23974609 81.74658203 C-170.21669491 79.03860101 -165.26585341 76.20784721 -160.3125 73.375 C-152.26885447 68.78965757 -144.14283522 64.41558045 -135.91772461 60.16577148 C-128.31881888 56.21811174 -120.8818437 52.00940547 -113.4453125 47.765625 C-106.76706041 43.96624104 -100.01809207 40.34338887 -93.19824219 36.80615234 C-85.9349096 33.01625677 -78.83043801 28.96293507 -71.71606445 24.90209961 C-64.29168393 20.6833757 -56.77804639 16.66716125 -49.17626953 12.77758789 C-44.08886413 10.15981174 -39.18015869 7.33973395 -34.29174805 4.36743164 C-31.44561143 2.66920951 -28.534979 1.15202817 -25.5625 -0.3125 C-24.07943359 -1.04919922 -24.07943359 -1.04919922 -22.56640625 -1.80078125 C-13.93253836 -5.83517614 -8.03993413 -3.95925328 0 0 Z " fill="#404137" transform="translate(2033,413)"/>
<path d="M0 0 C1.29421875 -0.02835937 2.5884375 -0.05671875 3.921875 -0.0859375 C13.31056031 0.46237145 21.65012149 5.45445895 29.5625 10.125 C38.69523277 15.40438705 47.92524226 20.44718885 57.25 25.375 C67.1324259 30.60504319 76.92090404 35.96232174 86.62890625 41.51171875 C94.68828214 46.10092858 102.85673593 50.47578941 111.04476929 54.82925415 C120.11742176 59.65616108 129.08746485 64.64032063 138.01074219 69.73779297 C144.27190443 73.29911744 150.60195442 76.691725 157 80 C191.92354899 98.17604501 191.92354899 98.17604501 197.37780952 112.10159111 C199.26289908 119.17650089 198.79379784 126.62841127 198.75170898 133.90063477 C198.7554969 135.76926072 198.76100083 137.63788386 198.76808167 139.50650024 C198.78199087 144.55812464 198.77089881 149.60940671 198.75437045 154.66101193 C198.74047306 159.95922664 198.74698529 165.25742242 198.75050354 170.5556488 C198.75320172 179.45015957 198.73976296 188.34453509 198.71655273 197.23901367 C198.68993735 207.50922416 198.6882 217.77920871 198.6999411 228.04944187 C198.71073489 237.94756611 198.70451975 247.84560895 198.69038582 257.74372673 C198.68464075 261.94805777 198.68469703 266.15232896 198.68945122 270.35666084 C198.69423739 275.31030121 198.68405147 280.26369539 198.66249657 285.21728897 C198.65695115 287.03086072 198.65644267 288.84445624 198.66144943 290.65802956 C198.69096296 302.88549121 198.59478153 313.76083966 189.54589844 323.14160156 C183.66013451 328.67048354 177.21260633 332.42894039 170.06460571 336.07342529 C166.71849201 337.779729 163.39434832 339.52813268 160.06640625 341.26953125 C159.39951279 341.61693359 158.73261932 341.96433594 158.04551697 342.32226562 C151.97217202 345.4943602 146.00708179 348.84300804 140.0625 352.25 C132.57021512 356.52926604 125.02228568 360.65679849 117.37133789 364.64477539 C102.45527207 372.42577859 87.7747644 380.62211481 73.15332031 388.94067383 C67.70306349 392.02874786 62.22092757 394.94165775 56.578125 397.6640625 C51.63224782 400.20666133 46.82822844 402.99195452 42 405.75 C32.89171666 410.94873128 23.69213204 415.81549137 14.25 420.375 C13.61312256 420.7258667 12.97624512 421.0767334 12.32006836 421.43823242 C5.65475653 424.45448451 -4.97125491 423.68666197 -11.87939453 421.79052734 C-15.99972873 420.20035047 -19.75416239 418.00014718 -23.52246094 415.71435547 C-25.97959801 414.23694929 -28.47154967 412.83604747 -30.9765625 411.44140625 C-34.84558927 409.28467958 -38.69935728 407.1040395 -42.54296875 404.90234375 C-46.89795321 402.41428139 -51.2771363 399.9764294 -55.67578125 397.56640625 C-56.81474854 396.93943848 -57.95371582 396.3124707 -59.12719727 395.66650391 C-61.3361523 394.45225819 -63.5487652 393.24463775 -65.76538086 392.04443359 C-66.76577393 391.49223145 -67.76616699 390.9400293 -68.796875 390.37109375 C-69.68213867 389.88825928 -70.56740234 389.4054248 -71.47949219 388.90795898 C-73.8503357 387.30725722 -75.18917796 385.75176449 -76.75 383.375 C-74.36179696 380.98679696 -72.72372062 380.63996291 -69.5 379.6875 C-63.20150279 377.68930366 -57.6664144 374.89970222 -51.87890625 371.765625 C-48.6692166 370.33909627 -47.18172516 370.07576892 -43.75 370.375 C-41.58789062 371.28613281 -41.58789062 371.28613281 -39.40625 372.578125 C-38.5819751 373.05870361 -37.7577002 373.53928223 -36.90844727 374.03442383 C-36.03115967 374.55931396 -35.15387207 375.0842041 -34.25 375.625 C-32.87896118 376.42296997 -32.87896118 376.42296997 -31.48022461 377.23706055 C-26.60033098 380.07932461 -21.75259653 382.97344208 -16.91015625 385.87890625 C-15.5025 386.71083496 -15.5025 386.71083496 -14.06640625 387.55957031 C-12.26203142 388.62619898 -10.46601863 389.70713155 -8.6796875 390.80371094 C-4.01719194 393.565544 -4.01719194 393.565544 1.22265625 394.53125 C5.80383649 392.78153471 9.98784219 390.47611969 14.25 388.0625 C16.22903746 386.9620072 18.20820783 385.86175337 20.1875 384.76171875 C21.19554688 384.19759277 22.20359375 383.6334668 23.2421875 383.05224609 C27.89284553 380.45890026 32.57180524 377.91821921 37.25 375.375 C39.09259103 374.37005402 40.93503873 373.3648452 42.77734375 372.359375 C46.35182491 370.40954275 49.92738919 368.46172012 53.50390625 366.515625 C61.40305902 362.21536481 69.29734168 357.90700035 77.16796875 353.5546875 C78.06273926 353.05989899 78.06273926 353.05989899 78.97558594 352.55511475 C80.19912127 351.87846634 81.42265232 351.20181018 82.6461792 350.52514648 C93.7012274 344.41180274 104.78902613 338.36540292 115.91943359 332.38989258 C125.49276766 327.25023735 135.03694065 322.05894152 144.56689453 316.83935547 C147.38263405 315.30261246 150.2045288 313.77760905 153.02734375 312.25390625 C154.8724377 311.25268132 156.71749131 310.25138203 158.5625 309.25 C159.42343262 308.78827393 160.28436523 308.32654785 161.17138672 307.85083008 C161.95658691 307.42310303 162.74178711 306.99537598 163.55078125 306.5546875 C164.24341064 306.18069824 164.93604004 305.80670898 165.6496582 305.42138672 C167.41940189 304.45608577 167.41940189 304.45608577 168.25 302.375 C168.36476391 299.99612409 168.41982008 297.64536191 168.43081665 295.26544189 C168.43802117 294.52475991 168.44522568 293.78407793 168.45264852 293.02095103 C168.4754641 290.52602703 168.49097012 288.031113 168.50634766 285.53613281 C168.52079178 283.75248976 168.53554936 281.96884923 168.55059814 280.18521118 C168.68088178 263.90119344 168.74672997 247.61648658 168.79844093 231.33205032 C168.83737363 219.29037484 168.90576604 207.24963298 169.01298869 195.20836759 C169.08580393 186.74632275 169.12426965 178.28453356 169.13746679 169.82218814 C169.14633936 164.76559567 169.17065151 159.71015719 169.23213577 154.65390778 C169.28933283 149.89615987 169.30406962 145.14016223 169.28626251 140.38212204 C169.28714176 138.63654898 169.30343127 136.89090498 169.33630753 135.14564133 C169.84362722 126.01835643 169.84362722 126.01835643 166.29717159 118.04510689 C163.98936766 116.47400052 161.84044891 115.39622149 159.25 114.375 C157.55387573 113.40506104 157.55387573 113.40506104 155.82348633 112.41552734 C154.75380615 111.8530127 153.68412598 111.29049805 152.58203125 110.7109375 C151.98867477 110.39691986 151.3953183 110.08290222 150.78398132 109.7593689 C149.52651519 109.09446408 148.26793739 108.43165772 147.00830078 107.77087402 C143.66315588 106.01582717 140.32652537 104.24468854 136.98828125 102.4765625 C136.32301422 102.12480957 135.65774719 101.77305664 134.97232056 101.41064453 C129.20695947 98.36022094 123.47140088 95.25712311 117.75 92.125 C116.86940918 91.64305176 115.98881836 91.16110352 115.08154297 90.66455078 C113.33427995 89.70770858 111.58720672 88.75051973 109.84033203 87.79296875 C107.23811092 86.36849182 104.63322443 84.94902 102.02734375 83.53125 C92.05019006 78.10250461 82.08780773 72.64718295 72.13943481 67.16589355 C70.90694278 66.48691114 69.67426506 65.80826564 68.44137573 65.13000488 C60.70840857 60.874717 53.02414151 56.54883038 45.38183594 52.13330078 C42.45992669 50.49285875 39.51015683 48.97085004 36.5 47.5 C29.7448582 44.19043389 23.20483007 40.5155449 16.64453125 36.83984375 C15.56486084 36.24018799 15.56486084 36.24018799 14.46337891 35.62841797 C12.93106276 34.76068015 11.41316081 33.86717451 9.90771484 32.95361328 C9.13766113 32.49583496 8.36760742 32.03805664 7.57421875 31.56640625 C6.54494263 30.93714233 6.54494263 30.93714233 5.49487305 30.29516602 C1.57845704 28.68984009 -1.5518593 28.89676102 -5.45288086 30.45385742 C-6.36432861 30.95763916 -7.27577637 31.4614209 -8.21484375 31.98046875 C-9.25036377 32.54531982 -10.28588379 33.1101709 -11.3527832 33.69213867 C-12.45323975 34.30935791 -13.55369629 34.92657715 -14.6875 35.5625 C-15.83758545 36.19454346 -16.9876709 36.82658691 -18.17260742 37.4777832 C-26.6320071 42.13251864 -35.02611874 46.90582881 -43.41381836 51.68823242 C-50.47978313 55.70280468 -57.64280587 59.49343901 -64.86132812 63.22485352 C-71.17987396 66.50840059 -77.38243856 69.96358335 -83.5625 73.5 C-92.86104701 78.81712495 -102.2768269 83.8790089 -111.75 88.875 C-123.02972603 94.82627464 -134.21065167 100.91525418 -145.28125 107.25 C-152.41707747 111.3276157 -159.58678458 115.34569133 -166.75 119.375 C-166.75 180.095 -166.75 240.815 -166.75 303.375 C-157.46481481 308.68082011 -148.16805599 313.94688243 -138.8125 319.125 C-136.49055847 320.41087012 -134.16904385 321.69750447 -131.84765625 322.984375 C-130.24712402 323.87044434 -130.24712402 323.87044434 -128.61425781 324.77441406 C-126.30592106 326.06434381 -124.01844277 327.38015383 -121.73828125 328.71875 C-114.09211638 332.95662439 -105.7013954 334.95194159 -97.140625 332.68359375 C-91.37739901 330.6460035 -88.05269826 328.53546602 -84.75 323.375 C-82.88152485 318.79125241 -82.46156996 314.65008691 -82.48498535 309.75750732 C-82.48060408 309.01058538 -82.47622281 308.26366343 -82.47170877 307.49410748 C-82.45942958 305.00219488 -82.46119405 302.51049396 -82.46289062 300.01855469 C-82.45686407 298.22783091 -82.44993922 296.43710995 -82.44218445 294.64639282 C-82.42731451 290.79628419 -82.41855114 286.94622726 -82.41447449 283.09609222 C-82.407758 277.01251545 -82.38600236 270.92904951 -82.36193848 264.84552002 C-82.30883076 250.83947289 -82.27539365 236.83339169 -82.24217987 222.82728577 C-82.21152166 209.97920485 -82.17675355 197.13117164 -82.12586927 184.28315282 C-82.1024711 178.23063389 -82.08876768 172.1781925 -82.08237457 166.12563276 C-82.07645522 162.36922923 -82.06237654 158.61288904 -82.04603004 154.85651779 C-82.04013221 153.10934899 -82.03768632 151.36216477 -82.03886986 149.61498642 C-82.04002142 147.23804091 -82.02907443 144.86145494 -82.01501465 142.48455811 C-82.01831362 141.78632392 -82.0216126 141.08808973 -82.02501154 140.36869693 C-81.97818671 135.60318671 -81.97818671 135.60318671 -79.75 133.375 C-77.06030273 133.13208008 -77.06030273 133.13208008 -73.68359375 133.14453125 C-72.47638672 133.14646484 -71.26917969 133.14839844 -70.02539062 133.15039062 C-68.12563477 133.16875977 -68.12563477 133.16875977 -66.1875 133.1875 C-64.28194336 133.1884668 -64.28194336 133.1884668 -62.33789062 133.18945312 C-52.89010053 133.23489947 -52.89010053 133.23489947 -51.75 134.375 C-51.64566447 136.80170057 -51.60666962 139.20018557 -51.60955811 141.62763977 C-51.60658698 142.39590235 -51.60361586 143.16416494 -51.6005547 143.95570821 C-51.59182905 146.55031692 -51.59035616 149.1448797 -51.58886719 151.73950195 C-51.58424141 153.59207763 -51.57921708 155.44465235 -51.57382202 157.29722595 C-51.56066499 162.34739782 -51.5542456 167.39755636 -51.54981136 172.4477427 C-51.5468834 175.60422906 -51.54277892 178.76071175 -51.53830719 181.91719627 C-51.52461795 191.79610087 -51.51496068 201.67499713 -51.5111053 211.55391055 C-51.50663356 222.94996506 -51.48913283 234.34589907 -51.4601047 245.74191695 C-51.43844671 254.55139609 -51.42839867 263.36084145 -51.42706418 272.17034692 C-51.42601826 277.43013806 -51.42015702 282.68981618 -51.40224457 287.94957924 C-51.38569475 292.90635488 -51.3836418 297.86293342 -51.39238358 302.81972694 C-51.39315051 304.63204478 -51.388857 306.44437349 -51.37892532 308.25666428 C-51.29500186 324.53576868 -52.95412647 338.08815754 -64.375 350.625 C-75.11664753 360.73237882 -87.78265078 362.49327166 -101.875 362.625 C-103.12796875 362.63926025 -103.12796875 362.63926025 -104.40625 362.65380859 C-113.37282209 362.60607645 -121.15681028 360.54862609 -129.375 357.0625 C-130.18130859 356.72202637 -130.98761719 356.38155273 -131.81835938 356.03076172 C-140.59350958 352.19622826 -148.80459742 347.4234572 -157.07421875 342.6171875 C-161.51911423 340.0433093 -166.02888497 337.66502126 -170.61694336 335.35839844 C-181.20649958 330.01763393 -191.70424797 324.29237826 -195.75 312.375 C-197.40900961 307.31250173 -198.04223936 302.73157792 -198.02415466 297.438797 C-198.03200968 296.28483863 -198.03200968 296.28483863 -198.04002339 295.10756797 C-198.05495216 292.54537265 -198.05572696 289.9833783 -198.05639648 287.42114258 C-198.06402284 285.5775316 -198.07245115 283.73392378 -198.08161926 281.89031982 C-198.10352592 276.89214794 -198.11235818 271.89403723 -198.11744571 266.89582276 C-198.12109424 263.76911528 -198.12733692 260.64242369 -198.1344471 257.51572227 C-198.15892963 246.59600499 -198.17199062 235.67633512 -198.17553711 224.7565918 C-198.17917 214.59720697 -198.20905086 204.43812467 -198.25094169 194.27883226 C-198.28569934 185.54141042 -198.30108651 176.80408858 -198.30178314 168.06659812 C-198.30257418 162.85488315 -198.31123276 157.64347646 -198.33978081 152.43183327 C-198.36605485 147.52575153 -198.3681147 142.62023162 -198.35212517 137.71411133 C-198.35031801 135.92113197 -198.35693462 134.1281196 -198.37294388 132.3352108 C-198.47522056 120.12952152 -197.60622734 108.38544125 -188.70825195 98.99853516 C-180.13025602 91.88674449 -169.38115313 86.90997292 -159.5625 81.75 C-152.21017653 77.87690989 -144.92739274 73.952165 -137.83081055 69.62158203 C-135.36561689 68.14472191 -132.84489424 66.85837566 -130.25 65.625 C-124.46007729 62.78147197 -118.84250118 59.68557345 -113.2175293 56.53344727 C-106.86604522 52.97977269 -100.47020137 49.51359484 -94.0625 46.0625 C-83.09889573 40.14799303 -72.25284106 34.03914301 -61.42041016 27.88867188 C-51.61606561 22.33126319 -41.82747172 16.81691947 -31.69140625 11.8828125 C-27.0341325 9.49541852 -22.56227083 6.79907869 -18.07421875 4.109375 C-12.09750014 0.99108703 -6.70437261 0.06624874 0 0 Z " fill="#83CD2A" transform="translate(2539.75,404.625)"/>
<path d="M0 0 C2.38710873 0.00314635 4.77295667 -0.02033699 7.15991211 -0.0456543 C29.72205869 -0.1379458 53.11767812 3.91997162 70.00170898 19.97583008 C79.18369852 29.65894933 83.8657025 41.39706266 83.59155273 54.73364258 C83.22045898 57.31567383 83.22045898 57.31567383 81.22045898 59.31567383 C78.60668945 59.54272461 78.60668945 59.54272461 75.33764648 59.51098633 C74.17104492 59.50454102 73.00444336 59.4980957 71.80249023 59.49145508 C70.57916992 59.47469727 69.35584961 59.45793945 68.09545898 59.44067383 C66.24887695 59.42713867 66.24887695 59.42713867 64.36499023 59.41333008 C61.31662084 59.38969931 58.26863516 59.35675437 55.22045898 59.31567383 C54.9585376 58.72616943 54.69661621 58.13666504 54.42675781 57.52929688 C53.70319946 55.90099943 52.9789695 54.2730003 52.25415039 52.64526367 C51.48880982 50.92044559 50.73292551 49.1914247 49.98217773 47.46020508 C46.34443309 39.56299216 42.20953579 35.29715209 34.09545898 32.06567383 C20.68762945 27.72305697 7.15274229 27.96585177 -6.77954102 28.31567383 C-8.6087207 28.36014648 -8.6087207 28.36014648 -10.47485352 28.40551758 C-19.73281725 28.90104827 -28.62194763 31.20785742 -35.47485352 37.74926758 C-39.04635829 42.03721194 -39.2586967 46.94913013 -38.77954102 52.31567383 C-37.81444517 55.5969997 -36.93128424 57.55299822 -34.03344727 59.47192383 C-21.10276206 65.73559519 -5.46669216 66.91153642 8.64306641 68.30322266 C67.88672898 74.19967931 67.88672898 74.19967931 83.22045898 92.75317383 C91.01904386 103.68611818 91.8038791 117.45358478 89.72436523 130.40551758 C85.80633252 144.41746507 77.02687013 153.53825331 64.70092773 160.80004883 C38.53979599 174.49343604 3.73720564 174.38877197 -24.77954102 169.31567383 C-25.45049805 169.19740234 -26.12145508 169.07913086 -26.81274414 168.95727539 C-43.34790727 165.85397113 -58.95956694 158.72612981 -69.45532227 145.14770508 C-70.70220789 143.24611254 -71.7718493 141.35249752 -72.77954102 139.31567383 C-73.33641602 138.20192383 -73.89329102 137.08817383 -74.46704102 135.94067383 C-77.18149868 128.44360029 -78.8249214 120.3097591 -77.77954102 112.31567383 C-75.05719499 109.5933278 -73.55191228 110.05779326 -69.74829102 110.05004883 C-68.5455957 110.0474707 -67.34290039 110.04489258 -66.10375977 110.04223633 C-64.84176758 110.0499707 -63.57977539 110.05770508 -62.27954102 110.06567383 C-61.01754883 110.05793945 -59.75555664 110.05020508 -58.45532227 110.04223633 C-57.25262695 110.04481445 -56.04993164 110.04739258 -54.81079102 110.05004883 C-53.7028418 110.05230469 -52.59489258 110.05456055 -51.45336914 110.05688477 C-48.77954102 110.31567383 -48.77954102 110.31567383 -46.77954102 112.31567383 C-46.28735352 114.41723633 -46.28735352 114.41723633 -45.90454102 116.94067383 C-45.11615614 121.29886543 -43.81912673 124.76110192 -41.68188477 128.62426758 C-40.77954102 130.31567383 -40.77954102 130.31567383 -39.77954102 133.31567383 C-37.95821942 134.41439522 -37.95821942 134.41439522 -35.77954102 135.31567383 C-35.09118164 135.70625977 -34.40282227 136.0968457 -33.69360352 136.49926758 C-21.2146635 143.33500093 -8.17491689 143.80755121 5.70727539 143.70678711 C8.34891028 143.69065275 10.98902541 143.7067484 13.63061523 143.72583008 C27.05285334 143.74235944 41.38156991 142.82028391 52.15795898 133.87817383 C55.84406408 129.2984675 56.48152371 125.50897506 56.40795898 119.69067383 C56.40151367 118.5640332 56.39506836 117.43739258 56.38842773 116.27661133 C56.34691458 113.25839157 56.34691458 113.25839157 55.22045898 110.31567383 C52.03821265 108.34074344 48.4095069 107.17459468 44.90795898 105.87817383 C43.81870117 105.46696289 42.72944336 105.05575195 41.60717773 104.63208008 C30.39135826 100.9810026 18.66154624 99.78833335 6.97045898 98.81567383 C-2.02020131 98.01610918 -10.98498029 97.16020313 -19.90454102 95.75317383 C-20.64865234 95.63844727 -21.39276367 95.5237207 -22.15942383 95.40551758 C-25.94604436 94.77530934 -29.2506317 93.79629415 -32.77954102 92.31567383 C-34.62829713 91.87562158 -36.48304514 91.46023622 -38.34204102 91.06567383 C-50.1691232 88.16716477 -60.51680026 82.80079767 -67.09204102 72.37817383 C-73.4032994 61.74413573 -73.64475851 47.50527993 -70.93969727 35.62817383 C-65.77957859 22.28483666 -55.96182193 13.59378196 -43.27954102 7.56567383 C-29.17983773 1.53424395 -15.19159368 -0.04168002 0 0 Z " fill="#83CD2A" transform="translate(2581.779541015625,532.684326171875)"/>
<path d="M0 0 C4.43230098 1.35914184 8.30583377 3.90415039 12.26708984 6.26269531 C14.3030166 7.44684317 16.34086935 8.6276842 18.38037109 9.80566406 C19.45883301 10.42876465 20.53729492 11.05186523 21.6484375 11.69384766 C25.23714036 13.72695227 28.8555561 15.69064569 32.49755859 17.62597656 C33.11900253 17.9562384 33.74044647 18.28650024 34.38072205 18.62677002 C36.8334091 19.92748002 39.28760264 21.22519719 41.74594116 22.51519775 C59.03002447 31.58812994 59.03002447 31.58812994 63.07958984 35.63769531 C63.19486004 37.73276844 63.239289 39.83176119 63.2565918 41.92993164 C63.26316299 42.58689529 63.26973419 43.24385895 63.27650452 43.92073059 C63.2962806 46.10373029 63.30791026 48.28666104 63.31787109 50.46972656 C63.32194662 51.21403112 63.32602215 51.95833569 63.33022118 52.72519493 C63.35110148 56.66550802 63.36539398 60.60578608 63.37475586 64.54614258 C63.38581755 68.61857004 63.42020833 72.69045065 63.45992756 76.76268482 C63.48606465 79.89138307 63.49444512 83.01995057 63.49803734 86.1487484 C63.50291182 87.64987565 63.51455038 89.15099674 63.53307533 90.65201759 C63.55740431 92.7542111 63.55651421 94.85498444 63.54956055 96.95727539 C63.55542679 98.15338943 63.56129303 99.34950348 63.56733704 100.5818634 C62.98079985 104.256634 61.95434893 105.3615637 59.07958984 107.63769531 C56.85083008 109.04711914 56.85083008 109.04711914 54.38818359 110.34472656 C53.45611084 110.84174072 52.52403809 111.33875488 51.5637207 111.85083008 C50.55833252 112.37862061 49.55294434 112.90641113 48.51708984 113.45019531 C46.36008032 114.59981302 44.20386149 115.75091525 42.04833984 116.90332031 C40.91654297 117.50724609 39.78474609 118.11117187 38.61865234 118.73339844 C32.54784476 121.98833074 26.53471027 125.34831655 20.51708984 128.70019531 C19.38263428 129.33094971 18.24817871 129.9617041 17.0793457 130.61157227 C16.00563721 131.20929443 14.93192871 131.8070166 13.82568359 132.42285156 C12.31723877 133.25840576 12.31723877 133.25840576 10.77832031 134.11083984 C8.53736654 135.37869988 6.36084862 136.70929908 4.17724609 138.07128906 C0.66406698 139.84781469 -1.03460438 139.96905238 -4.92041016 139.63769531 C-7.7434082 138.4987793 -7.7434082 138.4987793 -10.68212891 136.88378906 C-11.78862793 136.28348877 -12.89512695 135.68318848 -14.03515625 135.06469727 C-15.22627515 134.40189092 -16.41718827 133.73871463 -17.60791016 133.07519531 C-18.84255328 132.3986614 -20.0777512 131.72313909 -21.31347656 131.04858398 C-24.53915537 129.28345029 -27.75588772 127.50261031 -30.97076416 125.71789551 C-33.53543627 124.29694046 -36.10558597 122.88606996 -38.67591858 121.47538757 C-41.71822499 119.8048051 -44.75722554 118.12825964 -47.79541016 116.45019531 C-48.92293701 115.82749756 -50.05046387 115.2047998 -51.2121582 114.56323242 C-64.25061862 107.30748684 -64.25061862 107.30748684 -66.92041016 104.63769531 C-67.06736624 102.49277738 -67.14352974 100.34298912 -67.19262695 98.19360352 C-67.21694038 97.1837162 -67.21694038 97.1837162 -67.241745 96.15342712 C-67.38213121 89.93178961 -67.46009453 83.7087146 -67.52066326 77.48583698 C-67.56163378 73.30360562 -67.62196313 69.12371621 -67.72973633 64.94262695 C-67.83355103 60.90172736 -67.88807381 56.86291573 -67.90812111 52.82076073 C-67.9240463 51.28196904 -67.9572616 49.74325327 -68.00827599 48.20522499 C-68.15534868 43.54709287 -68.1563512 39.17355681 -66.92041016 34.63769531 C-63.96101762 31.54713785 -60.86364537 30.16548002 -56.92041016 28.63769531 C-55.29568819 27.76411585 -53.68053357 26.87223424 -52.08056641 25.95410156 C-50.3823023 25.03436789 -48.68304186 24.11647212 -46.98291016 23.20019531 C-38.64933785 18.68086019 -30.33872544 14.12218725 -22.05001831 9.52120972 C-20.84369922 8.85168976 -19.63709741 8.18267894 -18.4302063 7.51419067 C-16.73478499 6.57494001 -15.04046541 5.63370148 -13.34619141 4.69238281 C-12.37077393 4.15081543 -11.39535645 3.60924805 -10.39038086 3.05126953 C-3.84205186 -0.69636563 -3.84205186 -0.69636563 0 0 Z " fill="#FDFDFD" transform="translate(1503.92041015625,551.3623046875)"/>
<path d="M0 0 C2.63378906 1.09814453 2.63378906 1.09814453 5.265625 2.6328125 C6.72548828 3.47199219 6.72548828 3.47199219 8.21484375 4.328125 C9.71724609 5.21757813 9.71724609 5.21757813 11.25 6.125 C12.23613281 6.69476562 13.22226563 7.26453125 14.23828125 7.8515625 C17.16926141 9.55068144 20.0866923 11.27077906 23 13 C24.44922852 13.85803223 24.44922852 13.85803223 25.92773438 14.73339844 C32.86169745 18.86169745 32.86169745 18.86169745 34 20 C34.38953681 25.60747516 34.48523357 31.21624918 34.56982422 36.83569336 C34.60644331 38.72838184 34.66097422 40.62081315 34.73388672 42.51245117 C35.3253786 58.08885832 35.3253786 58.08885832 32.33007812 62.40795898 C29.94879805 64.04019418 27.70591279 65.00275746 25 66 C23.22488019 66.94460908 21.45932886 67.90739007 19.703125 68.88671875 C17.88812091 69.825559 16.07038233 70.75913098 14.25 71.6875 C12.42118173 72.62755876 10.59303417 73.56892372 8.765625 74.51171875 C7.92451172 74.94274902 7.08339844 75.3737793 6.21679688 75.81787109 C3.85587002 77.03661012 3.85587002 77.03661012 1.171875 78.83203125 C-1.51794 80.27853248 -2.96611051 80.26841012 -6 80 C-8.50439453 78.90185547 -8.50439453 78.90185547 -11.1328125 77.3671875 C-12.10476563 76.80773437 -13.07671875 76.24828125 -14.078125 75.671875 C-15.58632812 74.78242187 -15.58632812 74.78242187 -17.125 73.875 C-19.10629635 72.72574411 -21.08806605 71.57730387 -23.0703125 70.4296875 C-24.04387695 69.86088867 -25.01744141 69.29208984 -26.02050781 68.70605469 C-29.9352389 66.464483 -33.9160764 64.3558929 -37.91357422 62.26611328 C-40 61 -40 61 -41 59 C-41.35542307 53.49040115 -41.44171434 47.98098154 -41.51489258 42.46118164 C-41.54654466 40.61708241 -41.59431275 38.77318708 -41.65844727 36.92993164 C-41.74976242 34.26891759 -41.78850553 31.61156331 -41.81640625 28.94921875 C-41.85455948 28.12822189 -41.89271271 27.30722504 -41.93202209 26.46134949 C-41.92390788 24.06746922 -41.812775 22.25448219 -41 20 C-38.61662321 17.72872547 -35.95036424 16.41470645 -33 15 C-31.91380371 14.35828857 -30.82760742 13.71657715 -29.70849609 13.05541992 C-26.8746027 11.43167677 -24.03645938 9.81644918 -21.19042969 8.21411133 C-19.97358316 7.52599411 -18.75972576 6.83256573 -17.54882812 6.1340332 C-15.77628891 5.11205654 -13.99497557 4.10720514 -12.2109375 3.10546875 C-10.63771729 2.21057739 -10.63771729 2.21057739 -9.03271484 1.29760742 C-5.65424929 -0.14793633 -3.63504804 -0.44329118 0 0 Z " fill="#83CD2A" transform="translate(2023,578)"/>
</svg>
