<?xml version="1.0" encoding="UTF-8"?>
<svg version="1.1" xmlns="http://www.w3.org/2000/svg" width="860" height="877">
<path d="M0 0 C283.8 0 567.6 0 860 0 C860 289.41 860 578.82 860 877 C576.2 877 292.4 877 0 877 C0 587.59 0 298.18 0 0 Z " fill="#F6F6F6" transform="translate(0,0)"/>
<path d="M0 0 C0.70104858 0.00498505 1.40209717 0.00997009 2.12438965 0.0151062 C12.36777882 0.10039488 22.16116843 0.43701249 32.0625 3.375 C32.82353027 3.60074707 33.58456055 3.82649414 34.36865234 4.05908203 C59.77033653 11.79480011 85.76738695 26.1097035 100.0625 49.375 C107.27802621 45.62519898 114.02687894 41.51255995 120.7265625 36.9140625 C123.0625 35.375 123.0625 35.375 124.0625 35.375 C123.33187676 43.22495199 121.94070417 50.88898627 120.4375 58.625 C120.30822113 59.29208984 120.17894226 59.95917969 120.04574585 60.64648438 C118.0409043 70.94216993 115.81357257 81.17352911 113.375 91.375 C113.08995605 92.57801758 112.80491211 93.78103516 112.51123047 95.02050781 C111.11398393 100.73525431 109.61572725 106.06798989 107.0625 111.375 C99.2881701 111.87214568 92.35438677 110.22638658 84.87661743 108.29788208 C81.23336805 107.35926895 77.58126047 106.45636815 73.9296875 105.55078125 C72.82065819 105.27460213 72.82065819 105.27460213 71.68922424 104.99284363 C64.28190035 103.1588916 56.83962061 101.52161252 49.375 99.9375 C47.64092896 99.56794189 47.64092896 99.56794189 45.87182617 99.19091797 C40.94635032 98.15246071 36.03239316 97.17945772 31.0625 96.375 C32.56006638 91.91286343 36.06602212 90.09398639 39.875 87.75 C40.49181641 87.35554688 41.10863281 86.96109375 41.74414062 86.5546875 C45.08606369 84.45222368 48.32163658 82.70033447 52.0625 81.375 C43.90463011 68.43255662 29.66309877 60.84901934 15.0625 57.375 C-4.61297755 53.70669063 -23.92311631 57.0109397 -40.52734375 68.10546875 C-42.76162765 69.77449792 -44.85599764 71.51983576 -46.9375 73.375 C-47.61167969 73.95636719 -48.28585938 74.53773437 -48.98046875 75.13671875 C-58.42738804 83.8527352 -64.01203617 95.29664976 -67.9375 107.375 C-68.18371094 108.1071875 -68.42992187 108.839375 -68.68359375 109.59375 C-73.57590098 127.13857592 -68.68112083 146.07921059 -60.203125 161.609375 C-50.80641664 177.78619516 -36.76742032 188.26041689 -18.82763672 193.21191406 C-4.17404971 196.8962063 8.75842625 196.33595043 23.0625 191.375 C24.16722656 191.07078125 25.27195312 190.7665625 26.41015625 190.453125 C36.6832462 187.38653098 44.30141035 181.58515167 52.73046875 175.14648438 C59.40122017 170.07917153 66.23256963 165.22448009 73.0625 160.375 C73.64354492 159.95766602 74.22458984 159.54033203 74.82324219 159.11035156 C86.02193255 151.1437221 98.47646713 145.76050767 111.0625 140.375 C111.81321777 140.05370117 112.56393555 139.73240234 113.33740234 139.40136719 C132.38855925 131.408455 152.56594286 127.3308126 173.0625 125.375 C174.03372803 125.2807373 175.00495605 125.18647461 176.00561523 125.08935547 C185.29389421 124.27763844 194.55760958 124.1330907 203.875 124.125 C204.686203 124.12399292 205.49740601 124.12298584 206.33319092 124.12194824 C220.09963307 124.13344592 233.48322661 124.98199474 247.0625 127.375 C247.89297852 127.51421875 248.72345703 127.6534375 249.57910156 127.796875 C294.0138061 135.41727689 339.06194475 161.05634395 371.0625 192.375 C371.85785156 193.13167969 372.65320313 193.88835937 373.47265625 194.66796875 C378.64335188 199.67902026 383.25911444 205.01837314 387.71386719 210.67138672 C389.23651814 212.59482234 390.7790488 214.50160701 392.3203125 216.41015625 C404.52438386 231.65717959 414.83383405 247.65826525 423.0625 265.375 C423.56475098 266.43170898 423.56475098 266.43170898 424.07714844 267.50976562 C431.42840069 283.01296991 436.33843849 298.76250339 440.3125 315.4375 C440.55887207 316.45263672 440.80524414 317.46777344 441.05908203 318.51367188 C444.70115234 334.41091865 445.39250042 350.25028615 445.32324219 366.50732422 C445.31248641 369.50378523 445.3232262 372.49965031 445.3359375 375.49609375 C445.3439606 386.62487933 444.82000446 397.3773535 443.0625 408.375 C442.9578241 409.03610275 442.85314819 409.69720551 442.74530029 410.37834167 C433.91710705 465.60520983 403.21285116 519.57090698 360.0625 555.375 C359.55122559 555.80006836 359.03995117 556.22513672 358.51318359 556.66308594 C336.43844841 574.9218933 313.66881909 587.76202528 287.0625 598.375 C286.26166992 598.69629883 285.46083984 599.01759766 284.63574219 599.34863281 C266.32078 606.58283428 246.70499677 611.10278368 227.0625 612.375 C225.19319824 612.4980249 225.19319824 612.4980249 223.28613281 612.62353516 C218.81673314 612.91187504 214.34621013 613.17887393 209.875 613.4375 C209.17595551 613.47806519 208.47691101 613.51863037 207.75668335 613.5604248 C202.19380817 613.87615754 196.62896068 614.13154905 191.0625 614.375 C190.10779344 614.41703049 189.15308687 614.45906097 188.16944981 614.50236511 C161.35686025 615.63103494 134.53478602 615.57564056 107.703125 615.61328125 C105.21707907 615.61734044 102.73103323 615.62145765 100.24498749 615.62563133 C88.59941194 615.64454975 76.95384234 615.6588303 65.30825448 615.6672433 C52.58133694 615.6765959 39.85459395 615.69950436 27.12773541 615.73774669 C16.04696949 615.77076843 4.9662494 615.78848869 -6.11456704 615.79202431 C-12.31430376 615.79437579 -18.51386459 615.80335649 -24.71355438 615.82848549 C-30.51530462 615.85164042 -36.31676119 615.85605063 -42.11854553 615.84572411 C-44.24912236 615.84522626 -46.37971318 615.85161943 -48.51024628 615.86528015 C-51.40902463 615.88283627 -54.30672849 615.87597514 -57.20550537 615.86274719 C-58.47971049 615.87920106 -58.47971049 615.87920106 -59.77965713 615.89598733 C-65.45658505 615.83305886 -65.45658505 615.83305886 -67.65446877 613.73963231 C-69.31770894 610.67427321 -69.29864404 608.52872428 -69.27807617 605.04589844 C-69.27773628 603.12435944 -69.27773628 603.12435944 -69.27738953 601.16400146 C-69.26207074 599.77078907 -69.24642278 598.37758026 -69.23046875 596.984375 C-69.22487097 595.55520066 -69.22060173 594.12602054 -69.21760559 592.69683838 C-69.20617101 588.9418539 -69.1767162 585.18721954 -69.14349365 581.43237305 C-69.1127626 577.59819271 -69.0990938 573.76395559 -69.08398438 569.9296875 C-69.0518448 562.41129901 -69.0006657 554.89319863 -68.9375 547.375 C-68.07515849 547.37353479 -68.07515849 547.37353479 -67.19539595 547.37203997 C-33.02380138 547.31360287 1.14772273 547.23968262 35.31923869 547.14601372 C39.43417966 547.13474731 43.54912097 547.12360857 47.6640625 547.11254883 C48.89273384 547.1092433 48.89273384 547.1092433 50.14622682 547.105871 C63.3605166 547.07062381 76.57480633 547.04568899 89.7891255 547.02465298 C103.37654774 547.00279016 116.96390967 546.96964177 130.5512805 546.92629844 C138.91648103 546.89996091 147.28160661 546.88213432 155.64684647 546.87565396 C161.40505553 546.87034466 167.16317078 546.85394581 172.92132932 546.82933434 C176.22962378 546.81550577 179.53761146 546.80773797 182.8459549 546.80999184 C231.26767996 546.83253954 275.48579511 536.90868534 314.0625 506.375 C314.59375488 505.95879395 315.12500977 505.54258789 315.67236328 505.11376953 C323.64421243 498.8229459 330.34467076 492.0539556 336.66357422 484.11376953 C338.11433736 482.31056969 339.60159516 480.54308516 341.09765625 478.77734375 C348.28616167 470.19927253 353.98219053 461.3361956 359.0625 451.375 C359.38057617 450.76720703 359.69865234 450.15941406 360.02636719 449.53320312 C367.01898076 436.07406604 370.98118828 421.60259375 374.375 406.875 C374.53444092 406.1946167 374.69388184 405.5142334 374.8581543 404.81323242 C384.79330753 359.20359073 373.40665039 308.45012776 349.0625 269.375 C333.49932278 245.22697341 309.24915747 225.5621605 284.0625 212.375 C283.05960938 211.83359375 282.05671875 211.2921875 281.0234375 210.734375 C267.70263977 203.76205663 253.81393702 198.80145112 239.10302734 195.79248047 C237.08185479 195.37895988 235.06644121 194.94342592 233.05078125 194.50390625 C191.09443963 185.63750039 144.76924243 192.79806482 108.4609375 216.078125 C102.75455707 219.87375708 97.38006591 224.06151056 92.0625 228.375 C91.37833008 228.92381836 90.69416016 229.47263672 89.98925781 230.03808594 C75.61243893 241.58165689 64.26111529 252.97084149 54.0625 268.375 C53.6603125 268.98053711 53.258125 269.58607422 52.84375 270.20996094 C27.29405324 309.26639844 16.53606163 354.8241942 25.5078125 400.89453125 C27.63372727 410.39480711 30.64557586 419.68435571 33.70849609 428.91845703 C33.92837189 429.58408157 34.14824768 430.24970612 34.37478638 430.9355011 C34.97887021 432.75271496 35.59311389 434.56654239 36.20800781 436.38012695 C37.0625 439.375 37.0625 439.375 37.0625 443.375 C43.30253115 441.53624474 49.4596935 439.70800281 55.4375 437.125 C59.56518734 435.39838569 62.61899417 434.98860819 67.0625 435.375 C65.65242511 439.90087859 63.86600837 444.14522621 61.82421875 448.4140625 C61.50695831 449.08472244 61.18969788 449.75538239 60.86282349 450.44636536 C60.18179351 451.8851752 59.49925416 453.32327142 58.81533813 454.76071167 C57.00291617 458.57033344 55.20167339 462.38524277 53.3984375 466.19921875 C53.033517 466.97018387 52.6685965 467.74114899 52.2926178 468.53547668 C48.78680341 475.94577574 45.32385157 483.37554953 41.875 490.8125 C41.10192505 492.47756592 41.10192505 492.47756592 40.31323242 494.17626953 C37.19823981 500.89504213 34.11678151 507.62841661 31.0625 514.375 C26.78952447 514.56933237 23.82445932 514.16079719 19.921875 512.42578125 C18.94677979 511.99628174 17.97168457 511.56678223 16.96704102 511.12426758 C15.40554321 510.41306763 15.40554321 510.41306763 13.8125 509.6875 C12.17269165 508.95406372 12.17269165 508.95406372 10.49975586 508.20581055 C1.32614609 504.05607773 -7.67328548 499.58128161 -16.65039062 495.02514648 C-24.44100188 491.08058577 -32.31170713 487.42009688 -40.328125 483.9609375 C-41.51921875 483.43757813 -42.7103125 482.91421875 -43.9375 482.375 C-45.06671875 481.89289063 -46.1959375 481.41078125 -47.359375 480.9140625 C-49.9375 479.375 -49.9375 479.375 -50.59863281 477.27880859 C-50.71045898 476.65055176 -50.82228516 476.02229492 -50.9375 475.375 C-47.37987066 474.02841021 -43.81568348 472.7001002 -40.25 471.375 C-39.24259766 470.9934375 -38.23519531 470.611875 -37.19726562 470.21875 C-36.22080078 469.8578125 -35.24433594 469.496875 -34.23828125 469.125 C-33.34278564 468.78984375 -32.44729004 468.4546875 -31.5246582 468.109375 C-28.86646656 467.35483688 -26.68521161 467.23642353 -23.9375 467.375 C-24.44539063 466.16328125 -24.95328125 464.9515625 -25.4765625 463.703125 C-29.08444758 454.97329236 -32.49038399 446.22582596 -35.25 437.1875 C-35.47961426 436.45499023 -35.70922852 435.72248047 -35.94580078 434.96777344 C-39.93999404 421.43952559 -41.45677602 407.28387417 -42.87280273 393.29663086 C-43.12807994 390.78216275 -43.3944808 388.26903998 -43.66210938 385.75585938 C-43.83137679 384.12767136 -44.00001985 382.4994183 -44.16796875 380.87109375 C-44.2460527 380.13451035 -44.32413666 379.39792694 -44.40458679 378.63902283 C-45.62304956 366.43164867 -45.62304956 366.43164867 -43.9375 361.375 C-43.70535039 358.84625357 -43.51595814 356.33034356 -43.359375 353.796875 C-43.25344923 352.23868951 -43.14630418 350.68058654 -43.03808594 349.12255859 C-42.98164917 348.30648132 -42.9252124 347.49040405 -42.86706543 346.64959717 C-40.71123793 316.33977633 -33.29526995 291.18197509 -20.390625 263.73828125 C-18.34276167 259.34811597 -16.56136222 254.93805284 -14.9375 250.375 C-16.07316406 250.41753906 -17.20882812 250.46007812 -18.37890625 250.50390625 C-23.10681122 250.49663734 -27.33275835 249.55645697 -31.875 248.3125 C-32.69838867 248.08916992 -33.52177734 247.86583984 -34.37011719 247.63574219 C-54.53053102 241.9562082 -71.5066116 232.47782014 -86.9375 218.375 C-88.04351562 217.37533203 -88.04351562 217.37533203 -89.171875 216.35546875 C-112.52108714 194.17371721 -125.13012792 161.42113999 -126.1640625 129.609375 C-126.78545016 98.60683429 -118.20747916 69.38608269 -97.9375 45.375 C-96.69226563 43.88613281 -96.69226563 43.88613281 -95.421875 42.3671875 C-71.6631814 14.81519998 -36.14549532 -0.43533841 0 0 Z " fill="#1E7CC0" transform="translate(233.9375,40.625)"/>
<path d="M0 0 C0.70104858 0.00498505 1.40209717 0.00997009 2.12438965 0.0151062 C12.36777882 0.10039488 22.16116843 0.43701249 32.0625 3.375 C32.82353027 3.60074707 33.58456055 3.82649414 34.36865234 4.05908203 C59.77033653 11.79480011 85.76738695 26.1097035 100.0625 49.375 C107.27802621 45.62519898 114.02687894 41.51255995 120.7265625 36.9140625 C123.0625 35.375 123.0625 35.375 124.0625 35.375 C123.33187676 43.22495199 121.94070417 50.88898627 120.4375 58.625 C120.30822113 59.29208984 120.17894226 59.95917969 120.04574585 60.64648438 C118.0409043 70.94216993 115.81357257 81.17352911 113.375 91.375 C113.08995605 92.57801758 112.80491211 93.78103516 112.51123047 95.02050781 C111.11398393 100.73525431 109.61572725 106.06798989 107.0625 111.375 C99.2881701 111.87214568 92.35438677 110.22638658 84.87661743 108.29788208 C81.23336805 107.35926895 77.58126047 106.45636815 73.9296875 105.55078125 C72.82065819 105.27460213 72.82065819 105.27460213 71.68922424 104.99284363 C64.28190035 103.1588916 56.83962061 101.52161252 49.375 99.9375 C47.64092896 99.56794189 47.64092896 99.56794189 45.87182617 99.19091797 C40.94635032 98.15246071 36.03239316 97.17945772 31.0625 96.375 C32.56006638 91.91286343 36.06602212 90.09398639 39.875 87.75 C40.49181641 87.35554688 41.10863281 86.96109375 41.74414062 86.5546875 C45.08606369 84.45222368 48.32163658 82.70033447 52.0625 81.375 C43.90463011 68.43255662 29.66309877 60.84901934 15.0625 57.375 C-4.61297755 53.70669063 -23.92311631 57.0109397 -40.52734375 68.10546875 C-42.76162765 69.77449792 -44.85599764 71.51983576 -46.9375 73.375 C-47.61167969 73.95636719 -48.28585938 74.53773437 -48.98046875 75.13671875 C-58.42738804 83.8527352 -64.01203617 95.29664976 -67.9375 107.375 C-68.18371094 108.1071875 -68.42992187 108.839375 -68.68359375 109.59375 C-73.57590098 127.13857592 -68.68112083 146.07921059 -60.203125 161.609375 C-50.80641664 177.78619516 -36.76742032 188.26041689 -18.82763672 193.21191406 C-4.25419836 196.87605485 8.84733819 196.44450349 23.0625 191.375 C24.66738281 190.80265625 24.66738281 190.80265625 26.3046875 190.21875 C28.19350107 189.5319087 30.07727037 188.83085755 31.953125 188.109375 C34.0625 187.375 34.0625 187.375 36.0625 187.375 C34.64511511 190.62707092 32.93723588 192.68861067 30.375 195.125 C27.09405128 198.32348323 24.03165475 201.61061387 21.06030273 205.09643555 C19.69486819 206.65376179 18.29538751 208.18171421 16.86816406 209.68261719 C10.05719207 216.87916786 4.60592733 224.54961471 -0.8125 232.8125 C-2.05583082 234.69708958 -3.3018796 236.57974014 -4.55325317 238.45899963 C-5.67411021 240.14376638 -6.7863155 241.83427985 -7.89794922 243.52514648 C-12.5799211 250.06724102 -12.5799211 250.06724102 -15.98046875 250.83813477 C-21.51697377 250.62068324 -26.59910199 249.79051411 -31.9375 248.3125 C-33.16581543 247.97750488 -33.16581543 247.97750488 -34.41894531 247.63574219 C-54.55525934 241.93239313 -71.517721 232.46766687 -86.9375 218.375 C-88.04351562 217.37533203 -88.04351562 217.37533203 -89.171875 216.35546875 C-112.52108714 194.17371721 -125.13012792 161.42113999 -126.1640625 129.609375 C-126.78545016 98.60683429 -118.20747916 69.38608269 -97.9375 45.375 C-96.69226563 43.88613281 -96.69226563 43.88613281 -95.421875 42.3671875 C-71.6631814 14.81519998 -36.14549532 -0.43533841 0 0 Z " fill="#4FB9D3" transform="translate(233.9375,40.625)"/>
<path d="M0 0 C7.88876225 6.76179622 7.88876225 6.76179622 11.59375 10.4609375 C12.39683594 11.26273438 13.19992187 12.06453125 14.02734375 12.890625 C15.25130859 14.12039063 15.25130859 14.12039063 16.5 15.375 C17.72396484 16.59316406 17.72396484 16.59316406 18.97265625 17.8359375 C19.77574219 18.6403125 20.57882812 19.4446875 21.40625 20.2734375 C22.47842773 21.34730713 22.47842773 21.34730713 23.57226562 22.44287109 C25.55704313 24.53343421 27.45041462 26.65659505 29.33422852 28.83642578 C32.81507326 32.83991393 36.48037171 36.60937202 40.24609375 40.34375 C41.23005882 41.32559265 41.23005882 41.32559265 42.23390198 42.32727051 C44.29940145 44.38723823 46.36837595 46.44367366 48.4375 48.5 C49.85114434 49.9086205 51.26455786 51.31747267 52.67773438 52.7265625 C56.11583149 56.15372133 59.55704656 59.57772019 63 63 C58.87645897 67.8628045 54.64861789 72.5064727 50.125 77 C49.55136719 77.5775 48.97773437 78.155 48.38671875 78.75 C45.44720115 81.68297079 42.45492371 84.49918017 39.2980957 87.19750977 C34.86805755 91.05764058 30.72718423 95.16279723 26.59765625 99.33984375 C25.83448593 100.10680069 25.07131561 100.87375763 24.28501892 101.66395569 C21.87504822 104.08603626 19.46838174 106.51135821 17.0625 108.9375 C13.86871277 112.15777337 10.67169679 115.37479001 7.47265625 118.58984375 C6.36966942 119.70527809 6.36966942 119.70527809 5.24440002 120.84324646 C4.56957077 121.52137894 3.89474152 122.19951141 3.19946289 122.89819336 C2.6040419 123.49885117 2.00862091 124.09950897 1.39515686 124.71836853 C0 126 0 126 -1 126 C-1 116.76 -1 107.52 -1 98 C-49.51 98 -98.02 98 -148 98 C-145.88066991 93.76133982 -143.75573886 92.02737758 -140 89.4375 C-139.38769531 89.00695312 -138.77539062 88.57640625 -138.14453125 88.1328125 C-132.47799678 84.20808703 -126.59592289 80.6624208 -120.69116211 77.11157227 C-108.55450994 69.76744131 -96.22734058 61.43774351 -86.31640625 51.23828125 C-84 49 -84 49 -82 49 C-81.67322266 48.19949219 -81.67322266 48.19949219 -81.33984375 47.3828125 C-79.51932877 44.14516196 -77.08064893 41.57372023 -74.5625 38.875 C-74.07201172 38.33746094 -73.58152344 37.79992187 -73.07617188 37.24609375 C-68.33815901 32.11804204 -65.0236105 30.16587109 -58.08293152 29.87974548 C-57.01037613 29.88196609 -55.93782074 29.88418671 -54.83276367 29.88647461 C-53.61187546 29.88655014 -52.39098724 29.88662567 -51.13310242 29.88670349 C-49.82460831 29.89186478 -48.5161142 29.89702606 -47.16796875 29.90234375 C-45.80748039 29.90421039 -44.44699135 29.90563313 -43.08650208 29.90663147 C-39.51744713 29.91043725 -35.94843331 29.92025086 -32.37939453 29.93133545 C-28.73275316 29.94159137 -25.08610489 29.94619293 -21.43945312 29.95117188 C-14.29293251 29.96134341 -7.14652462 29.98091999 0 30 C0 20.1 0 10.2 0 0 Z " fill="#50BAD3" transform="translate(702,558)"/>
<path d="M0 0 C12.6225 -0.04125 25.245 -0.0825 38.25 -0.125 C42.21290039 -0.14320801 46.17580078 -0.16141602 50.25878906 -0.18017578 C55.15576172 -0.18920898 55.15576172 -0.18920898 57.45941162 -0.19088745 C59.04389576 -0.19392768 60.62837572 -0.20089633 62.21282959 -0.21115112 C91.01354414 -0.38798451 91.01354414 -0.38798451 102.6875 10.0625 C110.88873461 18.72254494 113.50115224 29.27649722 113.265625 40.78515625 C112.80931164 50.71891905 109.2897228 57.83145008 102.34375 64.87890625 C94.42520312 72.04519117 85.24507441 74.51333145 75 77 C75.53367187 77.31710937 76.06734375 77.63421875 76.6171875 77.9609375 C90.02469674 86.35802806 97.70394199 97.91737973 106 111 C107.24442934 112.94814816 108.4892335 114.89605693 109.734375 116.84375 C112.68606996 121.46781918 115.62219677 126.10150118 118.55078125 130.74023438 C119.80229872 132.69172456 121.09080038 134.60706915 122.40625 136.515625 C124 139 124 139 124 141 C104.77379864 143.34377924 104.77379864 143.34377924 99.12255859 139.83398438 C95.92554082 136.52428219 94.0513258 132.4331522 92.12646484 128.29736328 C90.12138072 124.20810415 87.59117442 120.44731603 85.125 116.625 C84.11192586 115.01826278 83.09890518 113.41149184 82.0859375 111.8046875 C69.25886692 91.40619418 69.25886692 91.40619418 49 79 C34.15 78.505 34.15 78.505 19 78 C19 98.79 19 119.58 19 141 C12.73 141 6.46 141 0 141 C0 94.47 0 47.94 0 0 Z " fill="#383536" transform="translate(360,693)"/>
<path d="M0 0 C9.57 0 19.14 0 29 0 C33.79125733 14.35117499 38.58125872 28.70276782 43.3689785 43.05512333 C45.59217345 49.71955782 47.81592852 56.38380441 50.04101562 63.04760742 C52.18855319 69.47916646 54.334512 75.91125051 56.47951126 82.34365654 C57.2979066 84.79699566 58.11682981 87.25015876 58.93629074 89.70314217 C60.08441564 93.14025257 61.23065802 96.5779854 62.37646484 100.01586914 C62.71525162 101.02863419 63.05403839 102.04139923 63.40309143 103.08485413 C65.0491845 108.0303381 66.61817578 112.9740076 68 118 C78.17517635 89.40579829 88.06966262 60.71528947 97.9586792 32.02111816 C99.68141179 27.02306307 101.40564102 22.02552448 103.12986755 17.02798462 C105.08786578 11.35243235 107.04380406 5.67617511 109 0 C117.58 0 126.16 0 135 0 C135 46.53 135 93.06 135 141 C129.06 141 123.12 141 117 141 C116.67 103.38 116.34 65.76 116 27 C101.63473052 67.54430129 101.63473052 67.54430129 87.5625 108.1875 C86.20060602 112.16507963 84.83763257 116.14228751 83.47312927 120.11897278 C82.6448381 122.5336182 81.81781442 124.94869896 80.99232483 127.36430359 C80.62691086 128.4302626 80.26149689 129.49622162 79.88500977 130.59448242 C79.56766373 131.52225998 79.25031769 132.45003754 78.9233551 133.40592957 C78.01377089 135.96131212 77.00737442 138.48156394 76 141 C70.39 141 64.78 141 59 141 C56.34790842 134.49566862 53.89413465 127.98068245 51.671875 121.31860352 C51.36560181 120.40822327 51.05932861 119.49784302 50.74377441 118.55987549 C49.74321878 115.58376208 48.74663731 112.60633384 47.75 109.62890625 C47.0481403 107.53953006 46.34598684 105.45025253 45.64355469 103.36106873 C43.8014447 97.88023822 41.96251681 92.39834596 40.12451172 86.9161377 C37.18407792 78.14686526 34.23961333 69.37894743 31.2935791 60.6115551 C30.27090127 57.56614764 29.25009025 54.52011925 28.22949219 51.47401428 C27.59576404 49.58625274 26.96197795 47.69851065 26.328125 45.81079102 C26.04956665 44.97772934 25.7710083 44.14466766 25.48400879 43.28636169 C23.42048878 37.1487263 21.21481326 31.09073646 19 25 C18.67 63.28 18.34 101.56 18 141 C12.06 141 6.12 141 0 141 C0 94.47 0 47.94 0 0 Z " fill="#383536" transform="translate(645,693)"/>
<path d="M0 0 C8.70795512 9.11297629 12.6875 18.35988987 12.6875 30.8125 C6.7475 31.1425 0.8075 31.4725 -5.3125 31.8125 C-5.725 30.12125 -6.1375 28.43 -6.5625 26.6875 C-8.99631665 17.85783961 -13.36502836 12.75992991 -21.25 8.0625 C-31.365616 3.93367714 -47.97338162 3.94856693 -58.234375 7.76953125 C-63.18282262 10.25305665 -67.04457993 13.0691099 -70.3125 17.5625 C-72.12075161 23.43931772 -72.40642158 28.62465684 -69.625 34.1875 C-65.17227442 39.24194526 -60.74135777 41.719019 -54.375 43.75 C-53.59503662 44.00595947 -52.81507324 44.26191895 -52.01147461 44.52563477 C-45.87045483 46.4739079 -39.67177649 47.90670245 -33.375 49.25 C-17.21419151 52.74613853 1.16302191 57.07858935 11.1875 71.375 C15.17196534 77.80116514 17.23343675 83.54877228 17.125 91.0625 C17.11670166 91.80757812 17.10840332 92.55265625 17.09985352 93.3203125 C16.74361369 105.04453271 12.07141744 113.61933707 3.7265625 121.71484375 C-12.32936454 135.35342861 -32.36435781 134.87504981 -52.3125 133.8125 C-57.28198355 133.2258911 -61.74551127 131.86285438 -66.3125 129.8125 C-67.77236328 129.17634766 -67.77236328 129.17634766 -69.26171875 128.52734375 C-79.91128291 123.3115272 -88.53406046 114.69083844 -92.5 103.4453125 C-94.41307198 97.16140246 -95.3125 92.49928877 -95.3125 85.8125 C-89.3725 85.4825 -83.4325 85.1525 -77.3125 84.8125 C-77.065 86.111875 -76.8175 87.41125 -76.5625 88.75 C-74.42540509 98.239897 -70.91135277 104.74323473 -62.8125 110.375 C-51.25858221 117.17395349 -37.12110624 119.0265054 -24.08984375 115.90234375 C-15.66918299 113.47280461 -8.04998228 110.46621988 -3.4375 102.625 C-1.68415544 96.68311012 -1.28886513 90.82543629 -3.5 84.9375 C-8.38166873 76.52082978 -19.24570053 73.16659808 -28.23876953 70.66357422 C-32.26588952 69.61393439 -36.31752292 68.67406611 -40.375 67.75 C-57.0338365 63.92240806 -74.08555834 59.7222433 -85.3125 45.8125 C-90.45827252 37.4760357 -91.17681417 29.53349234 -90.3125 19.8125 C-87.78646843 9.60979686 -81.92223676 1.39894208 -73.07421875 -4.2578125 C-49.2475732 -16.926485 -22.37923967 -14.77874318 0 0 Z " fill="#3A3738" transform="translate(174.3125,702.1875)"/>
<path d="M0 0 C6.27 0 12.54 0 19 0 C19.01981934 2.85052002 19.03963867 5.70104004 19.06005859 8.63793945 C19.12714606 18.08557148 19.20478245 27.533096 19.28752708 36.98060322 C19.33734464 42.70522479 19.38367543 48.4298292 19.421875 54.15454102 C19.45891212 59.68541228 19.50532089 65.21613467 19.55806351 70.74687767 C19.57650995 72.85061198 19.59165336 74.95437808 19.60334396 77.05816078 C18.97906251 99.50723778 18.97906251 99.50723778 28.7890625 118.8515625 C33.40113276 122.58164323 38.30373262 124.51168954 44 126 C44.61359375 126.18433594 45.2271875 126.36867188 45.859375 126.55859375 C56.59492889 128.77231198 69.01468031 127.17268698 78.5 121.625 C85.8221958 116.48130874 88.34309378 109.36798744 90.53916931 100.92781067 C91.19483892 96.76212354 91.17834331 92.64754592 91.20532227 88.4362793 C91.21522186 87.47969925 91.22512146 86.5231192 91.23532104 85.53755188 C91.26684912 82.38313248 91.29165911 79.22869803 91.31640625 76.07421875 C91.33698328 73.88417678 91.35797995 71.69413871 91.37937927 69.50410461 C91.43452255 63.74530198 91.48396598 57.98646397 91.53222656 52.2276001 C91.58249814 46.34896706 91.63815467 40.47038529 91.69335938 34.59179688 C91.80084625 23.06124012 91.9018145 11.53063972 92 0 C98.27 0 104.54 0 111 0 C111.04537845 11.9970143 111.08198916 23.99397059 111.10362434 35.99105167 C111.11401374 41.56315897 111.12808337 47.13520395 111.15087891 52.70727539 C111.1727814 58.09543397 111.18460495 63.48353301 111.18975449 68.87173271 C111.19341925 70.91637546 111.20057454 72.96101535 111.21146011 75.0056324 C111.42177915 116.187631 111.42177915 116.187631 97 131 C84.58336535 142.30431113 70.93698668 144.35811742 54.6875 144.375 C53.45837891 144.39949219 52.22925781 144.42398438 50.96289062 144.44921875 C36.32850849 144.49555452 23.56848331 140.23936723 12.6875 130.3125 C1.53726213 118.48785258 -0.17862976 100.75760468 -0.11352539 85.25756836 C-0.11367142 84.32966492 -0.11381744 83.40176147 -0.1139679 82.44573975 C-0.11327701 79.41041643 -0.10552358 76.37515621 -0.09765625 73.33984375 C-0.09578914 71.22278375 -0.09436662 69.10572331 -0.09336853 66.98866272 C-0.08956644 61.44030547 -0.07975605 55.89197476 -0.06866455 50.34362793 C-0.05840062 44.67244831 -0.05386027 39.00126437 -0.04882812 33.33007812 C-0.03813155 22.2200386 -0.02055363 11.11002567 0 0 Z " fill="#3A3738" transform="translate(503,692)"/>
<path d="M0 0 C9.59387712 7.62427321 16.31731752 17.24814053 20.359375 28.875 C20.359375 29.865 20.359375 30.855 20.359375 31.875 C18.13166158 32.38143553 15.90213424 32.8798962 13.671875 33.375 C12.43050781 33.6534375 11.18914062 33.931875 9.91015625 34.21875 C6.93539282 34.76854126 4.36568898 35.01295705 1.359375 34.875 C1.15183594 34.25753906 0.94429688 33.64007812 0.73046875 33.00390625 C-3.07763811 22.53559575 -8.7576961 15.20060656 -18.640625 9.875 C-28.70440933 5.26926157 -42.00523175 5.22825787 -52.3671875 8.89453125 C-64.76312111 14.24054386 -71.17818053 21.28066251 -77.328125 33.125 C-83.28947424 50.15742641 -84.43301365 70.61508889 -78.640625 87.875 C-78.31191406 88.968125 -77.98320312 90.06125 -77.64453125 91.1875 C-74.26789712 101.28235084 -68.28646405 109.66050132 -58.77441406 114.82592773 C-51.67340445 118.31712205 -45.07279999 119.40261897 -37.203125 119.3125 C-36.27733643 119.30492676 -35.35154785 119.29735352 -34.39770508 119.28955078 C-27.80579249 119.13006433 -22.31861165 118.4529094 -16.640625 114.875 C-15.93035156 114.43929687 -15.22007812 114.00359375 -14.48828125 113.5546875 C-5.50917418 107.43484916 0.6175412 97.62242028 2.99609375 87.04296875 C3.11597656 86.32753906 3.23585938 85.61210938 3.359375 84.875 C9.93472361 85.49531591 16.02630092 87.02397283 22.359375 88.875 C20.35541172 102.90274298 12.62393833 116.09508877 1.75 125.015625 C-10.76083045 134.14514992 -22.69736022 136.30204818 -37.828125 136.4375 C-39.57319336 136.45973633 -39.57319336 136.45973633 -41.35351562 136.48242188 C-56.32952649 136.30463995 -70.74087783 131.13856843 -81.80078125 120.84765625 C-85.23549435 117.16500208 -87.99513008 113.14949426 -90.640625 108.875 C-91.08148438 108.17375 -91.52234375 107.4725 -91.9765625 106.75 C-103.14143885 86.83811862 -105.5514219 59.74735899 -100.015625 37.6875 C-94.60388542 20.2939791 -84.24854376 5.68840451 -67.953125 -2.9375 C-46.16457842 -13.02261844 -20.34378197 -14.30229521 0 0 Z " fill="#393637" transform="translate(313.640625,700.125)"/>
<path d="M0 0 C7.09855295 -0.04604467 14.19658243 -0.08583124 21.29516602 -0.10986328 C23.70729331 -0.11988754 26.11940855 -0.13351045 28.53149414 -0.15087891 C32.0093077 -0.17528462 35.48695983 -0.18651918 38.96484375 -0.1953125 C40.03395493 -0.20563507 41.1030661 -0.21595764 42.20457458 -0.22659302 C51.14630937 -0.2279168 61.08378644 0.22899106 67.8515625 6.796875 C73.26040709 12.71766785 75.56023309 17.2054221 75.37890625 25.3046875 C74.53508243 31.30714559 71.64971923 36.87498327 67.125 40.9375 C57.82790114 47.07358525 49.11831978 47.15006858 38.37890625 47.09765625 C37.27900864 47.0962413 36.17911102 47.09482635 35.04588318 47.09336853 C31.55139383 47.08779503 28.05696981 47.07524739 24.5625 47.0625 C22.1855478 47.05748158 19.8085946 47.05291927 17.43164062 47.04882812 C11.62104866 47.03868748 5.810597 47.01910682 0 47 C0 31.49 0 15.98 0 0 Z " fill="#F5F5F5" transform="translate(379,708)"/>
</svg>
